<?xml version="1.0" encoding="UTF-8"?>
<svg id="Calque_1" xmlns="http://www.w3.org/2000/svg" xmlns:xlink="http://www.w3.org/1999/xlink" version="1.1" viewBox="0 0 64 64">
  <!-- Generator: Adobe Illustrator 30.0.0, SVG Export Plug-In . SVG Version: 2.1.1 Build 123)  -->
  <defs>
    <style>
      .st0 {
        fill: url(#Dégradé_sans_nom_3);
      }

      .st1 {
        fill: #ebebeb;
      }

      .st2 {
        fill: #62a8ef;
      }

      .st3 {
        fill: url(#Dégradé_sans_nom);
        stroke: #0e64b2;
        stroke-miterlimit: 10;
        stroke-width: .52px;
      }

      .st4 {
        fill: #055aa0;
      }

      .st5 {
        fill: #fff;
      }

      .st6 {
        fill: #1e75af;
      }

      .st7 {
        fill: #134489;
        fill-rule: evenodd;
      }
    </style>
    <linearGradient id="Dégradé_sans_nom" data-name="Dégradé sans nom" x1="32.03" y1="63.69" x2="32.03" y2=".33" gradientTransform="translate(0 64) scale(1 -1)" gradientUnits="userSpaceOnUse">
      <stop offset="0" stop-color="#2f83d8"/>
      <stop offset="1" stop-color="#2b76c0"/>
    </linearGradient>
    <linearGradient id="Dégradé_sans_nom_3" data-name="Dégradé sans nom 3" x1="46.68" y1="30.05" x2="46.68" y2="63.74" gradientUnits="userSpaceOnUse">
      <stop offset="0" stop-color="#f2f4f4"/>
      <stop offset="1" stop-color="#e8e8e8"/>
    </linearGradient>
  </defs>
  <g>
    <rect class="st3" x=".36" y=".31" width="63.35" height="63.36" rx="3.97" ry="3.97"/>
    <rect class="st4" x=".36" y=".33" width="63.35" height="63.36" rx="3.97" ry="3.97"/>
    <path class="st6" d="M63.57,3.65s-1.32-2.57-3.46-2.56c-1.35,0-55.96-.04-55.96-.04,0,0-3.04.32-3.86,2.66C.85,1.38,2.77.37,4.26.35s55.66.03,55.66.03c0,0,3.17.17,3.66,3.28h0Z"/>
  </g>
  <g>
    <rect class="st2" x="9.14" y="14.29" width="43.44" height="36.23"/>
    <g>
      <path class="st5" d="M57,53.56s-1.41.27-2.34-.47c-.15-.12-.28-.27-.4-.43V12.15c.12-.17.25-.31.4-.43.92-.73,2.29-.48,2.34-.47.6.13,1.2-.26,1.32-.86.13-.61-.26-1.2-.86-1.33-.1-.02-2.42-.49-4.18.9-.26.21-.5.45-.7.71-.21-.26-.44-.5-.7-.71-1.76-1.39-4.08-.92-4.18-.9-.61.13-.99.72-.86,1.33s.73.99,1.33.86c0,0,1.41-.26,2.32.46.16.12.29.27.41.44v40.51c-.12.17-.25.31-.4.43-.92.74-2.3.48-2.34.47-.6-.13-1.2.26-1.32.86-.13.61.26,1.2.86,1.33.04,0,.46.09,1.06.09.86,0,2.08-.17,3.12-.99.26-.21.5-.45.7-.71.21.26.44.5.7.71,1.03.82,2.26.99,3.12.99.6,0,1.02-.09,1.06-.09.6-.13.98-.72.86-1.32s-.72-.99-1.32-.87Z"/>
      <path class="st5" d="M47.94,19.66h-8.56v1.25c3.07.37,3.19.91,2.66,3.38-.56,2.64-2.66,10.69-4.29,16.32h-.08c-2.35-7.05-4.57-13.76-6.72-20.58h-1.28c-1.94,6.79-4.14,13.67-6.13,20.52h-.08c-1.69-5.71-3.17-11.26-4.65-16.72-.56-2.1-.56-2.56,2.3-2.93v-1.25h-9.68v1.25c2.35.31,2.94.77,3.91,4.21,2.12,7.25,4.29,14.53,6.33,22.03h1.33c1.99-6.62,4.14-13.33,6.26-20.41h.08c1.97,5.83,4.55,13.79,6.69,20.41h1.35c3.19-11.63,5.49-19.3,6.39-21.95,1.15-3.47,1.56-3.89,4.16-4.29v-1.25h.01Z"/>
    </g>
  </g>
  <g>
    <path class="st1" d="M59.82,63.97h-30.13v-.52h30.09s1.78.05,2.91-1.42c.81-1.01.76-2.2.76-2.21v-29.74h.52v29.74s.06,1.37-.87,2.53c-1.19,1.55-2.94,1.62-3.28,1.62Z"/>
    <path class="st0" d="M59.73,63.73h-30.05s-.69-12.53,10.36-24.09c10.68-10.76,21.84-9.55,23.65-9.55-.04,18.79-.07,29.69-.07,29.69,0,0,0,1.27-.83,2.39-1.13,1.51-3.05,1.57-3.05,1.57h-.01Z"/>
    <path id="path-8" class="st7" d="M46.93,53.18h1.56c.69,0,1.02-.25,1.17-.25.13,0,.23.1.23.31,0,.23-.25,1.27-.43,1.6-.13.23-.25.33-.69.33h-1.83c0,.52.02.88.03,1.06.02.64.14,1.65.34,1.93.33.48,1.34,1.02,3.35,1.02,2.59,0,4.32-.51,5.85-1.83,1.63-1.4,2.14-3.71,2.14-6.33,0-3.23-1.35-5.32-2.44-6.36-2.34-2.24-5.24-2.54-7.22-2.54-.51,0-1.53.08-1.73.18-.23.1-.32.23-.32.51v10.39h0v-.02h0ZM43.84,45.32c-.58.74-5.78,6.71-6.64,7.86h5.83v1.98h-7.9c-.31,0-.64-.1-.64-.38,0-.31.23-.53.33-.66.18-.2,10.51-12.6,10.73-12.85.41-.47.58-.58.86-.57.43.02.37.34,1.05.26.06,0,.92-.06,1.92-.06,3.18,0,7.43,0,10.2,2.9,1.27,1.32,2.47,3.43,2.47,6.46,0,3.2-1.35,5.65-2.77,7.1-1.17,1.2-3.82,2.87-8.53,2.87h-9.24c-.28,0-.36-.11-.36-.29s.08-.33.2-.33c.23,0,.79-.02,1.2-.08.97-.1,1.15-.5,1.2-1.29.08-1.38.08-3.07.08-3.07v-9.85h0Z"/>
  </g>
</svg>