<?xml version="1.0" encoding="UTF-8"?>
<svg id="Calque_1" xmlns="http://www.w3.org/2000/svg" xmlns:xlink="http://www.w3.org/1999/xlink" version="1.1" viewBox="0 0 64 64">
  <!-- Generator: Adobe Illustrator 30.0.0, SVG Export Plug-In . SVG Version: 2.1.1 Build 123)  -->
  <defs>
    <style>
      .st0 {
        fill: #62a8ef;
      }

      .st1 {
        fill: #055aa0;
      }

      .st2 {
        fill: #fff;
      }

      .st3 {
        fill: url(#Dégradé_sans_nom_28);
        stroke: #0e64b2;
        stroke-miterlimit: 10;
        stroke-width: .52px;
      }

      .st4 {
        fill: #1e75af;
      }
    </style>
    <linearGradient id="Dégradé_sans_nom_28" data-name="Dégradé sans nom 28" x1="32.04" y1=".31" x2="32.04" y2="63.67" gradientUnits="userSpaceOnUse">
      <stop offset="0" stop-color="#2f83d8"/>
      <stop offset="1" stop-color="#2b76c0"/>
    </linearGradient>
  </defs>
  <g>
    <rect class="st3" x=".36" y=".31" width="63.36" height="63.36" rx="3.97" ry="3.97"/>
    <rect class="st1" x=".36" y=".33" width="63.36" height="63.36" rx="3.97" ry="3.97"/>
    <path class="st4" d="M63.58,3.65s-1.32-2.57-3.46-2.56c-1.35.01-55.97-.04-55.97-.04,0,0-3.04.32-3.86,2.66C.85,1.38,2.77.37,4.26.35s55.67.03,55.67.03c0,0,3.17.17,3.66,3.28Z"/>
  </g>
  <g>
    <rect class="st0" x="9.14" y="14.29" width="43.44" height="36.23"/>
    <g>
      <path class="st2" d="M57,53.56s-1.41.27-2.34-.47c-.15-.12-.28-.27-.4-.43V12.15c.12-.17.25-.31.4-.43.92-.73,2.29-.48,2.34-.47.6.13,1.2-.26,1.32-.86.13-.61-.26-1.2-.86-1.33-.1-.02-2.42-.49-4.18.9-.26.21-.5.45-.7.71-.21-.26-.44-.5-.7-.71-1.76-1.39-4.08-.92-4.18-.9-.61.13-.99.72-.86,1.33.13.61.73.99,1.33.86.01,0,1.41-.26,2.32.46.16.12.29.27.41.44v40.51c-.12.17-.25.31-.4.43-.92.74-2.3.48-2.34.47-.6-.13-1.2.26-1.32.86-.13.61.26,1.2.86,1.33.04,0,.46.09,1.06.09.86,0,2.08-.17,3.12-.99.26-.21.5-.45.7-.71.21.26.44.5.7.71,1.03.82,2.26.99,3.12.99.6,0,1.02-.09,1.06-.09.6-.13.98-.72.86-1.32-.12-.6-.72-.99-1.32-.87Z"/>
      <path class="st2" d="M47.94,19.66h-8.56v1.25c3.07.37,3.19.91,2.66,3.38-.56,2.64-2.66,10.69-4.29,16.32h-.08c-2.35-7.05-4.57-13.76-6.72-20.58h-1.28c-1.94,6.79-4.14,13.67-6.13,20.52h-.08c-1.69-5.71-3.17-11.26-4.65-16.72-.56-2.1-.56-2.56,2.3-2.93v-1.25h-9.68v1.25c2.35.31,2.94.77,3.91,4.21,2.12,7.25,4.29,14.53,6.33,22.03h1.33c1.99-6.62,4.14-13.33,6.26-20.41h.08c1.97,5.83,4.55,13.79,6.69,20.41h1.35c3.19-11.63,5.49-19.3,6.39-21.95,1.15-3.47,1.56-3.89,4.16-4.29v-1.25Z"/>
    </g>
  </g>
</svg>