<?xml version="1.0" encoding="UTF-8" standalone="yes" ?><svg xmlns="http://www.w3.org/2000/svg" height="200" viewBox="0 0 200 200" width="200" xmlns:xlink="http://www.w3.org/1999/xlink"><title>sidebar</title><desc>sidebar</desc><metadata xmlns="http://www.4D.com/4DSVG"><generator>4D SVG v20R3.287416 ©4D SAS, 2008-2023.</generator><about>4D SVG is the quintessential vector drawing tool for 4D developers.</about><generation date="2023-07-24" system="macOS 12.6.6 (21G646)" time="PT14H20M1S"/></metadata><defs id="4D"/><rect fill="rgb(108,195,247)" height="26" id="1" stroke="black" stroke-width="0.5" width="31" x="2" y="3"/><rect fill="rgb(166,241,99)" height="26" id="2" stroke="black" stroke-width="0.5" width="31" x="35" y="3"/><rect fill="rgb(255,247,172)" height="26" id="3" stroke="black" stroke-width="0.5" width="31" x="68" y="3"/><rect fill="rgb(254,221,184)" height="26" id="4" stroke="black" stroke-width="0.5" width="31" x="101" y="3"/><rect fill="rgb(251,152,157)" height="26" id="5" stroke="black" stroke-width="0.5" width="31" x="134" y="3"/><rect fill="rgb(174,122,191)" height="26" id="6" stroke="black" stroke-width="0.5" width="31" x="167" y="3"/><rect fill="rgb(99,178,223)" height="26" id="7" stroke="black" stroke-width="0.5" width="31" x="2" y="31"/><rect fill="rgb(156,225,90)" height="26" id="8" stroke="black" stroke-width="0.5" width="31" x="35" y="31"/><rect fill="rgb(255,224,97)" height="26" id="9" stroke="black" stroke-width="0.5" width="31" x="68" y="31"/><rect fill="rgb(255,192,114)" height="26" id="10" stroke="black" stroke-width="0.5" width="31" x="101" y="31"/><rect fill="rgb(254,94,94)" height="26" id="11" stroke="black" stroke-width="0.5" width="31" x="134" y="31"/><rect fill="rgb(156,69,184)" height="26" id="12" stroke="black" stroke-width="0.5" width="31" x="167" y="31"/><rect fill="rgb(72,156,202)" height="26" id="13" stroke="black" stroke-width="0.5" width="31" x="2" y="59"/><rect fill="rgb(110,192,56)" height="26" id="14" stroke="black" stroke-width="0.5" width="31" x="35" y="59"/><rect fill="rgb(238,203,37)" height="26" id="15" stroke="black" stroke-width="0.5" width="31" x="68" y="59"/><rect fill="rgb(255,170,58)" height="26" id="16" stroke="black" stroke-width="0.5" width="31" x="101" y="59"/><rect fill="rgb(255,44,34)" height="26" id="17" stroke="black" stroke-width="0.5" width="31" x="134" y="59"/><rect fill="rgb(107,32,132)" height="26" id="18" stroke="black" stroke-width="0.5" width="31" x="167" y="59"/><rect fill="rgb(54,125,162)" height="26" id="19" stroke="black" stroke-width="0.5" width="31" x="2" y="87"/><rect fill="rgb(121,174,61)" height="26" id="20" stroke="black" stroke-width="0.5" width="31" x="35" y="87"/><rect fill="rgb(226,184,0)" height="26" id="21" stroke="black" stroke-width="0.5" width="31" x="68" y="87"/><rect fill="rgb(236,159,46)" height="26" id="22" stroke="black" stroke-width="0.5" width="31" x="101" y="87"/><rect fill="rgb(207,34,43)" height="26" id="23" stroke="black" stroke-width="0.5" width="31" x="134" y="87"/><rect fill="rgb(85,19,107)" height="26" id="24" stroke="black" stroke-width="0.5" width="31" x="167" y="87"/><rect fill="rgb(22,88,120)" height="26" id="25" stroke="black" stroke-width="0.5" width="31" x="2" y="115"/><rect fill="rgb(87,134,37)" height="26" id="26" stroke="black" stroke-width="0.5" width="31" x="35" y="115"/><rect fill="rgb(198,146,0)" height="26" id="27" stroke="black" stroke-width="0.5" width="31" x="68" y="115"/><rect fill="rgb(210,127,20)" height="26" id="28" stroke="black" stroke-width="0.5" width="31" x="101" y="115"/><rect fill="rgb(174,26,22)" height="26" id="29" stroke="black" stroke-width="0.5" width="31" x="134" y="115"/><rect fill="rgb(60,10,74)" height="26" id="30" stroke="black" stroke-width="0.5" width="31" x="167" y="115"/><rect fill="rgb(17,67,92)" height="26" id="31" stroke="black" stroke-width="0.5" width="31" x="2" y="143"/><rect fill="rgb(57,88,24)" height="26" id="32" stroke="black" stroke-width="0.5" width="31" x="35" y="143"/><rect fill="rgb(170,124,19)" height="26" id="33" stroke="black" stroke-width="0.5" width="31" x="68" y="143"/><rect fill="rgb(173,105,16)" height="26" id="34" stroke="black" stroke-width="0.5" width="31" x="101" y="143"/><rect fill="rgb(140,21,18)" height="26" id="35" stroke="black" stroke-width="0.5" width="31" x="134" y="143"/><rect fill="rgb(39,6,48)" height="26" id="36" stroke="black" stroke-width="0.5" width="31" x="167" y="143"/><rect fill="rgb(255,255,255)" height="26" id="37" stroke="black" stroke-width="0.5" width="31" x="2" y="171"/><rect fill="rgb(204,204,204)" height="26" id="38" stroke="black" stroke-width="0.5" width="31" x="35" y="171"/><rect fill="rgb(153,153,153)" height="26" id="39" stroke="black" stroke-width="0.5" width="31" x="68" y="171"/><rect fill="rgb(102,102,102)" height="26" id="40" stroke="black" stroke-width="0.5" width="31" x="101" y="171"/><rect fill="rgb(51,51,51)" height="26" id="41" stroke="black" stroke-width="0.5" width="31" x="134" y="171"/><rect fill="rgb(0,0,0)" height="26" id="42" stroke="black" stroke-width="0.5" width="31" x="167" y="171"/></svg>