<?xml version="1.0" encoding="UTF-8" standalone="yes" ?><svg xmlns="http://www.w3.org/2000/svg" height="200" viewBox="0 0 200 200" width="200" xmlns:xlink="http://www.w3.org/1999/xlink"><title>sidebar</title><desc>sidebar</desc><metadata xmlns="http://www.4D.com/4DSVG"><generator>4D SVG v20R3.287416 ©4D SAS, 2008-2023.</generator><about>4D SVG is the quintessential vector drawing tool for 4D developers.</about><generation date="2023-07-24" system="macOS 12.6.6 (21G646)" time="PT14H18M22S"/></metadata><defs id="4D"/><rect fill="rgb(255,255,255)" height="10" id="1" stroke="black" stroke-width="0.5" width="10" x="5" y="5"/><rect fill="rgb(255,255,0)" height="10" id="2" stroke="black" stroke-width="0.5" width="10" x="17" y="5"/><rect fill="rgb(255,102,0)" height="10" id="3" stroke="black" stroke-width="0.5" width="10" x="29" y="5"/><rect fill="rgb(255,0,0)" height="10" id="4" stroke="black" stroke-width="0.5" width="10" x="41" y="5"/><rect fill="rgb(255,0,153)" height="10" id="5" stroke="black" stroke-width="0.5" width="10" x="53" y="5"/><rect fill="rgb(0,0,153)" height="10" id="6" stroke="black" stroke-width="0.5" width="10" x="65" y="5"/><rect fill="rgb(0,0,255)" height="10" id="7" stroke="black" stroke-width="0.5" width="10" x="77" y="5"/><rect fill="rgb(0,153,255)" height="10" id="8" stroke="black" stroke-width="0.5" width="10" x="89" y="5"/><rect fill="rgb(0,187,0)" height="10" id="9" stroke="black" stroke-width="0.5" width="10" x="101" y="5"/><rect fill="rgb(0,153,0)" height="10" id="10" stroke="black" stroke-width="0.5" width="10" x="113" y="5"/><rect fill="rgb(102,51,0)" height="10" id="11" stroke="black" stroke-width="0.5" width="10" x="125" y="5"/><rect fill="rgb(68,68,68)" height="10" id="12" stroke="black" stroke-width="0.5" width="10" x="137" y="5"/><rect fill="rgb(221,221,221)" height="10" id="13" stroke="black" stroke-width="0.5" width="10" x="149" y="5"/><rect fill="rgb(153,102,0)" height="10" id="14" stroke="black" stroke-width="0.5" width="10" x="161" y="5"/><rect fill="rgb(170,170,170)" height="10" id="15" stroke="black" stroke-width="0.5" width="10" x="173" y="5"/><rect fill="rgb(0,0,0)" height="10" id="16" stroke="black" stroke-width="0.5" width="10" x="185" y="5"/><rect fill="rgb(255,0,94)" height="10" id="17" stroke="black" stroke-width="0.5" width="10" x="5" y="17"/><rect fill="rgb(255,4,86)" height="10" id="18" stroke="black" stroke-width="0.5" width="10" x="17" y="17"/><rect fill="rgb(255,0,72)" height="10" id="19" stroke="black" stroke-width="0.5" width="10" x="29" y="17"/><rect fill="rgb(255,0,75)" height="10" id="20" stroke="black" stroke-width="0.5" width="10" x="41" y="17"/><rect fill="rgb(255,0,50)" height="10" id="21" stroke="black" stroke-width="0.5" width="10" x="53" y="17"/><rect fill="rgb(255,0,39)" height="10" id="22" stroke="black" stroke-width="0.5" width="10" x="65" y="17"/><rect fill="rgb(255,0,28)" height="10" id="23" stroke="black" stroke-width="0.5" width="10" x="77" y="17"/><rect fill="rgb(255,0,17)" height="10" id="24" stroke="black" stroke-width="0.5" width="10" x="89" y="17"/><rect fill="rgb(255,0,6)" height="10" id="25" stroke="black" stroke-width="0.5" width="10" x="101" y="17"/><rect fill="rgb(255,4,0)" height="10" id="26" stroke="black" stroke-width="0.5" width="10" x="113" y="17"/><rect fill="rgb(255,15,0)" height="10" id="27" stroke="black" stroke-width="0.5" width="10" x="125" y="17"/><rect fill="rgb(255,26,0)" height="10" id="28" stroke="black" stroke-width="0.5" width="10" x="137" y="17"/><rect fill="rgb(255,37,0)" height="10" id="29" stroke="black" stroke-width="0.5" width="10" x="149" y="17"/><rect fill="rgb(255,48,0)" height="10" id="30" stroke="black" stroke-width="0.5" width="10" x="161" y="17"/><rect fill="rgb(255,59,0)" height="10" id="31" stroke="black" stroke-width="0.5" width="10" x="173" y="17"/><rect fill="rgb(255,70,0)" height="10" id="32" stroke="black" stroke-width="0.5" width="10" x="185" y="17"/><rect fill="rgb(255,77,0)" height="10" id="33" stroke="black" stroke-width="0.5" width="10" x="5" y="29"/><rect fill="rgb(255,84,0)" height="10" id="34" stroke="black" stroke-width="0.5" width="10" x="17" y="29"/><rect fill="rgb(255,91,0)" height="10" id="35" stroke="black" stroke-width="0.5" width="10" x="29" y="29"/><rect fill="rgb(255,98,0)" height="10" id="36" stroke="black" stroke-width="0.5" width="10" x="41" y="29"/><rect fill="rgb(255,105,0)" height="10" id="37" stroke="black" stroke-width="0.5" width="10" x="53" y="29"/><rect fill="rgb(255,114,3)" height="10" id="38" stroke="black" stroke-width="0.5" width="10" x="65" y="29"/><rect fill="rgb(255,124,4)" height="10" id="39" stroke="black" stroke-width="0.5" width="10" x="77" y="29"/><rect fill="rgb(255,130,2)" height="10" id="40" stroke="black" stroke-width="0.5" width="10" x="89" y="29"/><rect fill="rgb(255,138,6)" height="10" id="41" stroke="black" stroke-width="0.5" width="10" x="101" y="29"/><rect fill="rgb(255,146,3)" height="10" id="42" stroke="black" stroke-width="0.5" width="10" x="113" y="29"/><rect fill="rgb(255,153,2)" height="10" id="43" stroke="black" stroke-width="0.5" width="10" x="125" y="29"/><rect fill="rgb(255,160,3)" height="10" id="44" stroke="black" stroke-width="0.5" width="10" x="137" y="29"/><rect fill="rgb(255,159,0)" height="10" id="45" stroke="black" stroke-width="0.5" width="10" x="149" y="29"/><rect fill="rgb(255,174,16)" height="10" id="46" stroke="black" stroke-width="0.5" width="10" x="161" y="29"/><rect fill="rgb(255,177,7)" height="10" id="47" stroke="black" stroke-width="0.5" width="10" x="173" y="29"/><rect fill="rgb(255,184,4)" height="10" id="48" stroke="black" stroke-width="0.5" width="10" x="185" y="29"/><rect fill="rgb(255,192,0)" height="10" id="49" stroke="black" stroke-width="0.5" width="10" x="5" y="41"/><rect fill="rgb(255,199,4)" height="10" id="50" stroke="black" stroke-width="0.5" width="10" x="17" y="41"/><rect fill="rgb(255,206,0)" height="10" id="51" stroke="black" stroke-width="0.5" width="10" x="29" y="41"/><rect fill="rgb(255,215,0)" height="10" id="52" stroke="black" stroke-width="0.5" width="10" x="41" y="41"/><rect fill="rgb(255,223,3)" height="10" id="53" stroke="black" stroke-width="0.5" width="10" x="53" y="41"/><rect fill="rgb(255,230,5)" height="10" id="54" stroke="black" stroke-width="0.5" width="10" x="65" y="41"/><rect fill="rgb(255,239,10)" height="10" id="55" stroke="black" stroke-width="0.5" width="10" x="77" y="41"/><rect fill="rgb(255,246,4)" height="10" id="56" stroke="black" stroke-width="0.5" width="10" x="89" y="41"/><rect fill="rgb(255,253,6)" height="10" id="57" stroke="black" stroke-width="0.5" width="10" x="101" y="41"/><rect fill="rgb(249,255,0)" height="10" id="58" stroke="black" stroke-width="0.5" width="10" x="113" y="41"/><rect fill="rgb(242,255,4)" height="10" id="59" stroke="black" stroke-width="0.5" width="10" x="125" y="41"/><rect fill="rgb(235,255,0)" height="10" id="60" stroke="black" stroke-width="0.5" width="10" x="137" y="41"/><rect fill="rgb(226,255,0)" height="10" id="61" stroke="black" stroke-width="0.5" width="10" x="149" y="41"/><rect fill="rgb(211,255,0)" height="10" id="62" stroke="black" stroke-width="0.5" width="10" x="161" y="41"/><rect fill="rgb(202,255,0)" height="10" id="63" stroke="black" stroke-width="0.5" width="10" x="173" y="41"/><rect fill="rgb(195,255,0)" height="10" id="64" stroke="black" stroke-width="0.5" width="10" x="185" y="41"/><rect fill="rgb(188,255,0)" height="10" id="65" stroke="black" stroke-width="0.5" width="10" x="5" y="53"/><rect fill="rgb(166,255,0)" height="10" id="66" stroke="black" stroke-width="0.5" width="10" x="17" y="53"/><rect fill="rgb(144,255,0)" height="10" id="67" stroke="black" stroke-width="0.5" width="10" x="29" y="53"/><rect fill="rgb(122,255,0)" height="10" id="68" stroke="black" stroke-width="0.5" width="10" x="41" y="53"/><rect fill="rgb(100,255,0)" height="10" id="69" stroke="black" stroke-width="0.5" width="10" x="53" y="53"/><rect fill="rgb(79,255,0)" height="10" id="70" stroke="black" stroke-width="0.5" width="10" x="65" y="53"/><rect fill="rgb(60,255,3)" height="10" id="71" stroke="black" stroke-width="0.5" width="10" x="77" y="53"/><rect fill="rgb(12,255,0)" height="10" id="72" stroke="black" stroke-width="0.5" width="10" x="89" y="53"/><rect fill="rgb(3,255,12)" height="10" id="73" stroke="black" stroke-width="0.5" width="10" x="101" y="53"/><rect fill="rgb(4,255,35)" height="10" id="74" stroke="black" stroke-width="0.5" width="10" x="113" y="53"/><rect fill="rgb(0,255,53)" height="10" id="75" stroke="black" stroke-width="0.5" width="10" x="125" y="53"/><rect fill="rgb(0,255,75)" height="10" id="76" stroke="black" stroke-width="0.5" width="10" x="137" y="53"/><rect fill="rgb(0,255,96)" height="10" id="77" stroke="black" stroke-width="0.5" width="10" x="149" y="53"/><rect fill="rgb(0,255,118)" height="10" id="78" stroke="black" stroke-width="0.5" width="10" x="161" y="53"/><rect fill="rgb(0,255,140)" height="10" id="79" stroke="black" stroke-width="0.5" width="10" x="173" y="53"/><rect fill="rgb(0,255,167)" height="10" id="80" stroke="black" stroke-width="0.5" width="10" x="185" y="53"/><rect fill="rgb(0,255,167)" height="10" id="81" stroke="black" stroke-width="0.5" width="10" x="5" y="65"/><rect fill="rgb(0,255,177)" height="10" id="82" stroke="black" stroke-width="0.5" width="10" x="17" y="65"/><rect fill="rgb(0,255,187)" height="10" id="83" stroke="black" stroke-width="0.5" width="10" x="29" y="65"/><rect fill="rgb(0,255,197)" height="10" id="84" stroke="black" stroke-width="0.5" width="10" x="41" y="65"/><rect fill="rgb(0,255,208)" height="10" id="85" stroke="black" stroke-width="0.5" width="10" x="53" y="65"/><rect fill="rgb(0,255,218)" height="10" id="86" stroke="black" stroke-width="0.5" width="10" x="65" y="65"/><rect fill="rgb(0,255,228)" height="10" id="87" stroke="black" stroke-width="0.5" width="10" x="77" y="65"/><rect fill="rgb(0,255,238)" height="10" id="88" stroke="black" stroke-width="0.5" width="10" x="89" y="65"/><rect fill="rgb(0,255,248)" height="10" id="89" stroke="black" stroke-width="0.5" width="10" x="101" y="65"/><rect fill="rgb(0,253,255)" height="10" id="90" stroke="black" stroke-width="0.5" width="10" x="113" y="65"/><rect fill="rgb(0,243,255)" height="10" id="91" stroke="black" stroke-width="0.5" width="10" x="125" y="65"/><rect fill="rgb(0,233,255)" height="10" id="92" stroke="black" stroke-width="0.5" width="10" x="137" y="65"/><rect fill="rgb(0,224,255)" height="10" id="93" stroke="black" stroke-width="0.5" width="10" x="149" y="65"/><rect fill="rgb(0,213,255)" height="10" id="94" stroke="black" stroke-width="0.5" width="10" x="161" y="65"/><rect fill="rgb(0,203,255)" height="10" id="95" stroke="black" stroke-width="0.5" width="10" x="173" y="65"/><rect fill="rgb(0,193,255)" height="10" id="96" stroke="black" stroke-width="0.5" width="10" x="185" y="65"/><rect fill="rgb(0,180,255)" height="10" id="97" stroke="black" stroke-width="0.5" width="10" x="5" y="77"/><rect fill="rgb(0,161,255)" height="10" id="98" stroke="black" stroke-width="0.5" width="10" x="17" y="77"/><rect fill="rgb(0,142,255)" height="10" id="99" stroke="black" stroke-width="0.5" width="10" x="29" y="77"/><rect fill="rgb(0,124,255)" height="10" id="100" stroke="black" stroke-width="0.5" width="10" x="41" y="77"/><rect fill="rgb(0,105,255)" height="10" id="101" stroke="black" stroke-width="0.5" width="10" x="53" y="77"/><rect fill="rgb(0,86,255)" height="10" id="102" stroke="black" stroke-width="0.5" width="10" x="65" y="77"/><rect fill="rgb(0,67,255)" height="10" id="103" stroke="black" stroke-width="0.5" width="10" x="77" y="77"/><rect fill="rgb(1,40,255)" height="10" id="104" stroke="black" stroke-width="0.5" width="10" x="89" y="77"/><rect fill="rgb(0,30,255)" height="10" id="105" stroke="black" stroke-width="0.5" width="10" x="101" y="77"/><rect fill="rgb(0,11,255)" height="10" id="106" stroke="black" stroke-width="0.5" width="10" x="113" y="77"/><rect fill="rgb(7,0,255)" height="10" id="107" stroke="black" stroke-width="0.5" width="10" x="125" y="77"/><rect fill="rgb(25,0,255)" height="10" id="108" stroke="black" stroke-width="0.5" width="10" x="137" y="77"/><rect fill="rgb(44,0,255)" height="10" id="109" stroke="black" stroke-width="0.5" width="10" x="149" y="77"/><rect fill="rgb(63,0,255)" height="10" id="110" stroke="black" stroke-width="0.5" width="10" x="161" y="77"/><rect fill="rgb(82,0,255)" height="10" id="111" stroke="black" stroke-width="0.5" width="10" x="173" y="77"/><rect fill="rgb(101,0,255)" height="10" id="112" stroke="black" stroke-width="0.5" width="10" x="185" y="77"/><rect fill="rgb(120,0,255)" height="10" id="113" stroke="black" stroke-width="0.5" width="10" x="5" y="89"/><rect fill="rgb(139,0,255)" height="10" id="114" stroke="black" stroke-width="0.5" width="10" x="17" y="89"/><rect fill="rgb(158,0,255)" height="10" id="115" stroke="black" stroke-width="0.5" width="10" x="29" y="89"/><rect fill="rgb(177,0,255)" height="10" id="116" stroke="black" stroke-width="0.5" width="10" x="41" y="89"/><rect fill="rgb(196,0,255)" height="10" id="117" stroke="black" stroke-width="0.5" width="10" x="53" y="89"/><rect fill="rgb(215,0,255)" height="10" id="118" stroke="black" stroke-width="0.5" width="10" x="65" y="89"/><rect fill="rgb(234,0,255)" height="10" id="119" stroke="black" stroke-width="0.5" width="10" x="77" y="89"/><rect fill="rgb(253,0,255)" height="10" id="120" stroke="black" stroke-width="0.5" width="10" x="89" y="89"/><rect fill="rgb(255,3,239)" height="10" id="121" stroke="black" stroke-width="0.5" width="10" x="101" y="89"/><rect fill="rgb(255,0,220)" height="10" id="122" stroke="black" stroke-width="0.5" width="10" x="113" y="89"/><rect fill="rgb(255,0,201)" height="10" id="123" stroke="black" stroke-width="0.5" width="10" x="125" y="89"/><rect fill="rgb(255,0,182)" height="10" id="124" stroke="black" stroke-width="0.5" width="10" x="137" y="89"/><rect fill="rgb(255,0,163)" height="10" id="125" stroke="black" stroke-width="0.5" width="10" x="149" y="89"/><rect fill="rgb(255,0,144)" height="10" id="126" stroke="black" stroke-width="0.5" width="10" x="161" y="89"/><rect fill="rgb(255,0,125)" height="10" id="127" stroke="black" stroke-width="0.5" width="10" x="173" y="89"/><rect fill="rgb(255,0,106)" height="10" id="128" stroke="black" stroke-width="0.5" width="10" x="185" y="89"/><rect fill="rgb(255,224,224)" height="10" id="129" stroke="black" stroke-width="0.5" width="10" x="5" y="101"/><rect fill="rgb(255,192,192)" height="10" id="130" stroke="black" stroke-width="0.5" width="10" x="17" y="101"/><rect fill="rgb(255,160,160)" height="10" id="131" stroke="black" stroke-width="0.5" width="10" x="29" y="101"/><rect fill="rgb(255,127,127)" height="10" id="132" stroke="black" stroke-width="0.5" width="10" x="41" y="101"/><rect fill="rgb(255,95,95)" height="10" id="133" stroke="black" stroke-width="0.5" width="10" x="53" y="101"/><rect fill="rgb(255,64,64)" height="10" id="134" stroke="black" stroke-width="0.5" width="10" x="65" y="101"/><rect fill="rgb(255,32,32)" height="10" id="135" stroke="black" stroke-width="0.5" width="10" x="77" y="101"/><rect fill="rgb(255,0,0)" height="10" id="136" stroke="black" stroke-width="0.5" width="10" x="89" y="101"/><rect fill="rgb(236,15,0)" height="10" id="137" stroke="black" stroke-width="0.5" width="10" x="101" y="101"/><rect fill="rgb(216,0,0)" height="10" id="138" stroke="black" stroke-width="0.5" width="10" x="113" y="101"/><rect fill="rgb(207,0,0)" height="10" id="139" stroke="black" stroke-width="0.5" width="10" x="125" y="101"/><rect fill="rgb(176,0,0)" height="10" id="140" stroke="black" stroke-width="0.5" width="10" x="137" y="101"/><rect fill="rgb(156,0,0)" height="10" id="141" stroke="black" stroke-width="0.5" width="10" x="149" y="101"/><rect fill="rgb(136,0,0)" height="10" id="142" stroke="black" stroke-width="0.5" width="10" x="161" y="101"/><rect fill="rgb(116,0,0)" height="10" id="143" stroke="black" stroke-width="0.5" width="10" x="173" y="101"/><rect fill="rgb(96,0,0)" height="10" id="144" stroke="black" stroke-width="0.5" width="10" x="185" y="101"/><rect fill="rgb(255,240,223)" height="10" id="145" stroke="black" stroke-width="0.5" width="10" x="5" y="113"/><rect fill="rgb(255,224,192)" height="10" id="146" stroke="black" stroke-width="0.5" width="10" x="17" y="113"/><rect fill="rgb(255,207,160)" height="10" id="147" stroke="black" stroke-width="0.5" width="10" x="29" y="113"/><rect fill="rgb(255,190,127)" height="10" id="148" stroke="black" stroke-width="0.5" width="10" x="41" y="113"/><rect fill="rgb(255,176,95)" height="10" id="149" stroke="black" stroke-width="0.5" width="10" x="53" y="113"/><rect fill="rgb(255,161,64)" height="10" id="150" stroke="black" stroke-width="0.5" width="10" x="65" y="113"/><rect fill="rgb(255,145,32)" height="10" id="151" stroke="black" stroke-width="0.5" width="10" x="77" y="113"/><rect fill="rgb(255,129,0)" height="10" id="152" stroke="black" stroke-width="0.5" width="10" x="89" y="113"/><rect fill="rgb(236,119,0)" height="10" id="153" stroke="black" stroke-width="0.5" width="10" x="101" y="113"/><rect fill="rgb(216,109,0)" height="10" id="154" stroke="black" stroke-width="0.5" width="10" x="113" y="113"/><rect fill="rgb(196,99,0)" height="10" id="155" stroke="black" stroke-width="0.5" width="10" x="125" y="113"/><rect fill="rgb(176,89,0)" height="10" id="156" stroke="black" stroke-width="0.5" width="10" x="137" y="113"/><rect fill="rgb(156,82,0)" height="10" id="157" stroke="black" stroke-width="0.5" width="10" x="149" y="113"/><rect fill="rgb(136,69,0)" height="10" id="158" stroke="black" stroke-width="0.5" width="10" x="161" y="113"/><rect fill="rgb(116,59,0)" height="10" id="159" stroke="black" stroke-width="0.5" width="10" x="173" y="113"/><rect fill="rgb(96,48,0)" height="10" id="160" stroke="black" stroke-width="0.5" width="10" x="185" y="113"/><rect fill="rgb(255,255,223)" height="10" id="161" stroke="black" stroke-width="0.5" width="10" x="5" y="125"/><rect fill="rgb(255,255,192)" height="10" id="162" stroke="black" stroke-width="0.5" width="10" x="17" y="125"/><rect fill="rgb(255,255,160)" height="10" id="163" stroke="black" stroke-width="0.5" width="10" x="29" y="125"/><rect fill="rgb(255,255,127)" height="10" id="164" stroke="black" stroke-width="0.5" width="10" x="41" y="125"/><rect fill="rgb(254,255,95)" height="10" id="165" stroke="black" stroke-width="0.5" width="10" x="53" y="125"/><rect fill="rgb(254,255,64)" height="10" id="166" stroke="black" stroke-width="0.5" width="10" x="65" y="125"/><rect fill="rgb(254,255,32)" height="10" id="167" stroke="black" stroke-width="0.5" width="10" x="77" y="125"/><rect fill="rgb(254,255,0)" height="10" id="168" stroke="black" stroke-width="0.5" width="10" x="89" y="125"/><rect fill="rgb(234,236,0)" height="10" id="169" stroke="black" stroke-width="0.5" width="10" x="101" y="125"/><rect fill="rgb(214,215,0)" height="10" id="170" stroke="black" stroke-width="0.5" width="10" x="113" y="125"/><rect fill="rgb(194,195,0)" height="10" id="171" stroke="black" stroke-width="0.5" width="10" x="125" y="125"/><rect fill="rgb(174,175,0)" height="10" id="172" stroke="black" stroke-width="0.5" width="10" x="137" y="125"/><rect fill="rgb(158,159,0)" height="10" id="173" stroke="black" stroke-width="0.5" width="10" x="149" y="125"/><rect fill="rgb(135,136,0)" height="10" id="174" stroke="black" stroke-width="0.5" width="10" x="161" y="125"/><rect fill="rgb(115,116,0)" height="10" id="175" stroke="black" stroke-width="0.5" width="10" x="173" y="125"/><rect fill="rgb(95,96,0)" height="10" id="176" stroke="black" stroke-width="0.5" width="10" x="185" y="125"/><rect fill="rgb(226,255,223)" height="10" id="177" stroke="black" stroke-width="0.5" width="10" x="5" y="137"/><rect fill="rgb(197,255,192)" height="10" id="178" stroke="black" stroke-width="0.5" width="10" x="17" y="137"/><rect fill="rgb(167,255,160)" height="10" id="179" stroke="black" stroke-width="0.5" width="10" x="29" y="137"/><rect fill="rgb(137,255,127)" height="10" id="180" stroke="black" stroke-width="0.5" width="10" x="41" y="137"/><rect fill="rgb(108,255,95)" height="10" id="181" stroke="black" stroke-width="0.5" width="10" x="53" y="137"/><rect fill="rgb(79,255,64)" height="10" id="182" stroke="black" stroke-width="0.5" width="10" x="65" y="137"/><rect fill="rgb(49,255,32)" height="10" id="183" stroke="black" stroke-width="0.5" width="10" x="77" y="137"/><rect fill="rgb(19,255,0)" height="10" id="184" stroke="black" stroke-width="0.5" width="10" x="89" y="137"/><rect fill="rgb(18,236,0)" height="10" id="185" stroke="black" stroke-width="0.5" width="10" x="101" y="137"/><rect fill="rgb(16,216,0)" height="10" id="186" stroke="black" stroke-width="0.5" width="10" x="113" y="137"/><rect fill="rgb(15,196,0)" height="10" id="187" stroke="black" stroke-width="0.5" width="10" x="125" y="137"/><rect fill="rgb(13,176,0)" height="10" id="188" stroke="black" stroke-width="0.5" width="10" x="137" y="137"/><rect fill="rgb(12,156,0)" height="10" id="189" stroke="black" stroke-width="0.5" width="10" x="149" y="137"/><rect fill="rgb(10,136,0)" height="10" id="190" stroke="black" stroke-width="0.5" width="10" x="161" y="137"/><rect fill="rgb(9,116,0)" height="10" id="191" stroke="black" stroke-width="0.5" width="10" x="173" y="137"/><rect fill="rgb(7,96,0)" height="10" id="192" stroke="black" stroke-width="0.5" width="10" x="185" y="137"/><rect fill="rgb(223,255,255)" height="10" id="193" stroke="black" stroke-width="0.5" width="10" x="5" y="149"/><rect fill="rgb(192,255,255)" height="10" id="194" stroke="black" stroke-width="0.5" width="10" x="17" y="149"/><rect fill="rgb(160,255,255)" height="10" id="195" stroke="black" stroke-width="0.5" width="10" x="29" y="149"/><rect fill="rgb(127,254,255)" height="10" id="196" stroke="black" stroke-width="0.5" width="10" x="41" y="149"/><rect fill="rgb(95,254,255)" height="10" id="197" stroke="black" stroke-width="0.5" width="10" x="53" y="149"/><rect fill="rgb(64,254,255)" height="10" id="198" stroke="black" stroke-width="0.5" width="10" x="65" y="149"/><rect fill="rgb(32,253,255)" height="10" id="199" stroke="black" stroke-width="0.5" width="10" x="77" y="149"/><rect fill="rgb(0,253,255)" height="10" id="200" stroke="black" stroke-width="0.5" width="10" x="89" y="149"/><rect fill="rgb(0,233,236)" height="10" id="201" stroke="black" stroke-width="0.5" width="10" x="101" y="149"/><rect fill="rgb(0,214,216)" height="10" id="202" stroke="black" stroke-width="0.5" width="10" x="113" y="149"/><rect fill="rgb(0,194,196)" height="10" id="203" stroke="black" stroke-width="0.5" width="10" x="125" y="149"/><rect fill="rgb(0,174,176)" height="10" id="204" stroke="black" stroke-width="0.5" width="10" x="137" y="149"/><rect fill="rgb(0,155,156)" height="10" id="205" stroke="black" stroke-width="0.5" width="10" x="149" y="149"/><rect fill="rgb(0,135,136)" height="10" id="206" stroke="black" stroke-width="0.5" width="10" x="161" y="149"/><rect fill="rgb(0,115,116)" height="10" id="207" stroke="black" stroke-width="0.5" width="10" x="173" y="149"/><rect fill="rgb(0,95,96)" height="10" id="208" stroke="black" stroke-width="0.5" width="10" x="185" y="149"/><rect fill="rgb(223,228,255)" height="10" id="209" stroke="black" stroke-width="0.5" width="10" x="5" y="161"/><rect fill="rgb(192,202,255)" height="10" id="210" stroke="black" stroke-width="0.5" width="10" x="17" y="161"/><rect fill="rgb(160,175,255)" height="10" id="211" stroke="black" stroke-width="0.5" width="10" x="29" y="161"/><rect fill="rgb(127,147,255)" height="10" id="212" stroke="black" stroke-width="0.5" width="10" x="41" y="161"/><rect fill="rgb(95,120,255)" height="10" id="213" stroke="black" stroke-width="0.5" width="10" x="53" y="161"/><rect fill="rgb(64,94,255)" height="10" id="214" stroke="black" stroke-width="0.5" width="10" x="65" y="161"/><rect fill="rgb(32,66,255)" height="10" id="215" stroke="black" stroke-width="0.5" width="10" x="77" y="161"/><rect fill="rgb(0,39,255)" height="10" id="216" stroke="black" stroke-width="0.5" width="10" x="89" y="161"/><rect fill="rgb(0,36,236)" height="10" id="217" stroke="black" stroke-width="0.5" width="10" x="101" y="161"/><rect fill="rgb(0,33,216)" height="10" id="218" stroke="black" stroke-width="0.5" width="10" x="113" y="161"/><rect fill="rgb(0,32,207)" height="10" id="219" stroke="black" stroke-width="0.5" width="10" x="125" y="161"/><rect fill="rgb(0,27,176)" height="10" id="220" stroke="black" stroke-width="0.5" width="10" x="137" y="161"/><rect fill="rgb(0,24,156)" height="10" id="221" stroke="black" stroke-width="0.5" width="10" x="149" y="161"/><rect fill="rgb(0,21,136)" height="10" id="222" stroke="black" stroke-width="0.5" width="10" x="161" y="161"/><rect fill="rgb(0,18,116)" height="10" id="223" stroke="black" stroke-width="0.5" width="10" x="173" y="161"/><rect fill="rgb(0,14,96)" height="10" id="224" stroke="black" stroke-width="0.5" width="10" x="185" y="161"/><rect fill="rgb(255,223,255)" height="10" id="225" stroke="black" stroke-width="0.5" width="10" x="5" y="173"/><rect fill="rgb(255,192,255)" height="10" id="226" stroke="black" stroke-width="0.5" width="10" x="17" y="173"/><rect fill="rgb(255,160,255)" height="10" id="227" stroke="black" stroke-width="0.5" width="10" x="29" y="173"/><rect fill="rgb(255,127,255)" height="10" id="228" stroke="black" stroke-width="0.5" width="10" x="41" y="173"/><rect fill="rgb(255,95,255)" height="10" id="229" stroke="black" stroke-width="0.5" width="10" x="53" y="173"/><rect fill="rgb(255,64,255)" height="10" id="230" stroke="black" stroke-width="0.5" width="10" x="65" y="173"/><rect fill="rgb(255,32,255)" height="10" id="231" stroke="black" stroke-width="0.5" width="10" x="77" y="173"/><rect fill="rgb(255,0,255)" height="10" id="232" stroke="black" stroke-width="0.5" width="10" x="89" y="173"/><rect fill="rgb(235,0,236)" height="10" id="233" stroke="black" stroke-width="0.5" width="10" x="101" y="173"/><rect fill="rgb(215,0,216)" height="10" id="234" stroke="black" stroke-width="0.5" width="10" x="113" y="173"/><rect fill="rgb(207,0,207)" height="10" id="235" stroke="black" stroke-width="0.5" width="10" x="125" y="173"/><rect fill="rgb(176,0,176)" height="10" id="236" stroke="black" stroke-width="0.5" width="10" x="137" y="173"/><rect fill="rgb(156,0,156)" height="10" id="237" stroke="black" stroke-width="0.5" width="10" x="149" y="173"/><rect fill="rgb(136,0,136)" height="10" id="238" stroke="black" stroke-width="0.5" width="10" x="161" y="173"/><rect fill="rgb(116,0,116)" height="10" id="239" stroke="black" stroke-width="0.5" width="10" x="173" y="173"/><rect fill="rgb(96,0,96)" height="10" id="240" stroke="black" stroke-width="0.5" width="10" x="185" y="173"/><rect fill="rgb(255,255,255)" height="10" id="241" stroke="black" stroke-width="0.5" width="10" x="5" y="185"/><rect fill="rgb(238,238,238)" height="10" id="242" stroke="black" stroke-width="0.5" width="10" x="17" y="185"/><rect fill="rgb(221,221,221)" height="10" id="243" stroke="black" stroke-width="0.5" width="10" x="29" y="185"/><rect fill="rgb(204,204,204)" height="10" id="244" stroke="black" stroke-width="0.5" width="10" x="41" y="185"/><rect fill="rgb(192,192,192)" height="10" id="245" stroke="black" stroke-width="0.5" width="10" x="53" y="185"/><rect fill="rgb(170,170,170)" height="10" id="246" stroke="black" stroke-width="0.5" width="10" x="65" y="185"/><rect fill="rgb(153,153,153)" height="10" id="247" stroke="black" stroke-width="0.5" width="10" x="77" y="185"/><rect fill="rgb(136,136,136)" height="10" id="248" stroke="black" stroke-width="0.5" width="10" x="89" y="185"/><rect fill="rgb(119,119,119)" height="10" id="249" stroke="black" stroke-width="0.5" width="10" x="101" y="185"/><rect fill="rgb(102,102,102)" height="10" id="250" stroke="black" stroke-width="0.5" width="10" x="113" y="185"/><rect fill="rgb(85,85,85)" height="10" id="251" stroke="black" stroke-width="0.5" width="10" x="125" y="185"/><rect fill="rgb(64,64,64)" height="10" id="252" stroke="black" stroke-width="0.5" width="10" x="137" y="185"/><rect fill="rgb(51,51,51)" height="10" id="253" stroke="black" stroke-width="0.5" width="10" x="149" y="185"/><rect fill="rgb(34,34,34)" height="10" id="254" stroke="black" stroke-width="0.5" width="10" x="161" y="185"/><rect fill="rgb(17,17,17)" height="10" id="255" stroke="black" stroke-width="0.5" width="10" x="173" y="185"/><rect fill="rgb(0,0,0)" height="10" id="256" stroke="black" stroke-width="0.5" width="10" x="185" y="185"/></svg>