<?xml version="1.0" encoding="UTF-8" standalone="yes" ?><svg xmlns="http://www.w3.org/2000/svg" height="340" preserveAspectRatio="xMidYMid" viewBox="0 0 388 340" width="388"><title>palette</title><desc>palette</desc><metadata xmlns="http://www.4D.com/4DSVG"><generator>4D SVG Component version 15.0 ©2008-2015 4D SAS.</generator><about>4D SVG is the quintessential vector drawing tool for 4D developers.</about><generation date="2015-08-13Z" system="Mac OSX 10.10.4" time="PT16H22M10S"/></metadata><defs id="4D"/><rect fill="rgb(255,219,219)" height="20" id="1" stroke="black" stroke-width="0.1" width="20" x="4" y="4"/><rect fill="rgb(255,181,181)" height="20" id="2" stroke="black" stroke-width="0.1" width="20" x="4" y="28"/><rect fill="rgb(255,145,145)" height="20" id="3" stroke="black" stroke-width="0.1" width="20" x="4" y="52"/><rect fill="rgb(255,110,110)" height="20" id="4" stroke="black" stroke-width="0.1" width="20" x="4" y="76"/><rect fill="rgb(255,74,74)" height="20" id="5" stroke="black" stroke-width="0.1" width="20" x="4" y="100"/><rect fill="rgb(255,36,36)" height="20" id="6" stroke="black" stroke-width="0.1" width="20" x="4" y="124"/><rect fill="rgb(255,0,0)" height="20" id="7" stroke="black" stroke-width="0.1" width="20" x="4" y="148"/><rect fill="rgb(232,0,0)" height="20" id="8" stroke="black" stroke-width="0.1" width="20" x="4" y="172"/><rect fill="rgb(212,0,0)" height="20" id="9" stroke="black" stroke-width="0.1" width="20" x="4" y="196"/><rect fill="rgb(189,0,0)" height="20" id="10" stroke="black" stroke-width="0.1" width="20" x="4" y="220"/><rect fill="rgb(168,0,0)" height="20" id="11" stroke="black" stroke-width="0.1" width="20" x="4" y="244"/><rect fill="rgb(145,0,0)" height="20" id="12" stroke="black" stroke-width="0.1" width="20" x="4" y="268"/><rect fill="rgb(125,0,0)" height="20" id="13" stroke="black" stroke-width="0.1" width="20" x="4" y="292"/><rect fill="rgb(102,0,0)" height="20" id="14" stroke="black" stroke-width="0.1" width="20" x="4" y="316"/><rect fill="rgb(255,233,219)" height="20" id="15" stroke="black" stroke-width="0.1" width="20" x="28" y="4"/><rect fill="rgb(255,211,181)" height="20" id="16" stroke="black" stroke-width="0.1" width="20" x="28" y="28"/><rect fill="rgb(255,189,145)" height="20" id="17" stroke="black" stroke-width="0.1" width="20" x="28" y="52"/><rect fill="rgb(255,168,110)" height="20" id="18" stroke="black" stroke-width="0.1" width="20" x="28" y="76"/><rect fill="rgb(255,146,74)" height="20" id="19" stroke="black" stroke-width="0.1" width="20" x="28" y="100"/><rect fill="rgb(255,124,36)" height="20" id="20" stroke="black" stroke-width="0.1" width="20" x="28" y="124"/><rect fill="rgb(255,102,0)" height="20" id="21" stroke="black" stroke-width="0.1" width="20" x="28" y="148"/><rect fill="rgb(232,93,0)" height="20" id="22" stroke="black" stroke-width="0.1" width="20" x="28" y="172"/><rect fill="rgb(212,85,0)" height="20" id="23" stroke="black" stroke-width="0.1" width="20" x="28" y="196"/><rect fill="rgb(189,76,0)" height="20" id="24" stroke="black" stroke-width="0.1" width="20" x="28" y="220"/><rect fill="rgb(168,67,0)" height="20" id="25" stroke="black" stroke-width="0.1" width="20" x="28" y="244"/><rect fill="rgb(145,58,0)" height="20" id="26" stroke="black" stroke-width="0.1" width="20" x="28" y="268"/><rect fill="rgb(125,50,0)" height="20" id="27" stroke="black" stroke-width="0.1" width="20" x="28" y="292"/><rect fill="rgb(102,41,0)" height="20" id="28" stroke="black" stroke-width="0.1" width="20" x="28" y="316"/><rect fill="rgb(255,248,219)" height="20" id="29" stroke="black" stroke-width="0.1" width="20" x="52" y="4"/><rect fill="rgb(255,240,181)" height="20" id="30" stroke="black" stroke-width="0.1" width="20" x="52" y="28"/><rect fill="rgb(255,233,145)" height="20" id="31" stroke="black" stroke-width="0.1" width="20" x="52" y="52"/><rect fill="rgb(255,226,110)" height="20" id="32" stroke="black" stroke-width="0.1" width="20" x="52" y="76"/><rect fill="rgb(255,219,74)" height="20" id="33" stroke="black" stroke-width="0.1" width="20" x="52" y="100"/><rect fill="rgb(255,211,36)" height="20" id="34" stroke="black" stroke-width="0.1" width="20" x="52" y="124"/><rect fill="rgb(255,204,0)" height="20" id="35" stroke="black" stroke-width="0.1" width="20" x="52" y="148"/><rect fill="rgb(232,186,0)" height="20" id="36" stroke="black" stroke-width="0.1" width="20" x="52" y="172"/><rect fill="rgb(212,170,0)" height="20" id="37" stroke="black" stroke-width="0.1" width="20" x="52" y="196"/><rect fill="rgb(189,151,0)" height="20" id="38" stroke="black" stroke-width="0.1" width="20" x="52" y="220"/><rect fill="rgb(168,134,0)" height="20" id="39" stroke="black" stroke-width="0.1" width="20" x="52" y="244"/><rect fill="rgb(145,116,0)" height="20" id="40" stroke="black" stroke-width="0.1" width="20" x="52" y="268"/><rect fill="rgb(125,100,0)" height="20" id="41" stroke="black" stroke-width="0.1" width="20" x="52" y="292"/><rect fill="rgb(102,82,0)" height="20" id="42" stroke="black" stroke-width="0.1" width="20" x="52" y="316"/><rect fill="rgb(248,255,219)" height="20" id="43" stroke="black" stroke-width="0.1" width="20" x="76" y="4"/><rect fill="rgb(240,255,181)" height="20" id="44" stroke="black" stroke-width="0.1" width="20" x="76" y="28"/><rect fill="rgb(233,255,145)" height="20" id="45" stroke="black" stroke-width="0.1" width="20" x="76" y="52"/><rect fill="rgb(226,255,110)" height="20" id="46" stroke="black" stroke-width="0.1" width="20" x="76" y="76"/><rect fill="rgb(219,255,74)" height="20" id="47" stroke="black" stroke-width="0.1" width="20" x="76" y="100"/><rect fill="rgb(211,255,36)" height="20" id="48" stroke="black" stroke-width="0.1" width="20" x="76" y="124"/><rect fill="rgb(204,255,0)" height="20" id="49" stroke="black" stroke-width="0.1" width="20" x="76" y="148"/><rect fill="rgb(186,232,0)" height="20" id="50" stroke="black" stroke-width="0.1" width="20" x="76" y="172"/><rect fill="rgb(170,212,0)" height="20" id="51" stroke="black" stroke-width="0.1" width="20" x="76" y="196"/><rect fill="rgb(151,189,0)" height="20" id="52" stroke="black" stroke-width="0.1" width="20" x="76" y="220"/><rect fill="rgb(134,168,0)" height="20" id="53" stroke="black" stroke-width="0.1" width="20" x="76" y="244"/><rect fill="rgb(116,145,0)" height="20" id="54" stroke="black" stroke-width="0.1" width="20" x="76" y="268"/><rect fill="rgb(100,125,0)" height="20" id="55" stroke="black" stroke-width="0.1" width="20" x="76" y="292"/><rect fill="rgb(82,102,0)" height="20" id="56" stroke="black" stroke-width="0.1" width="20" x="76" y="316"/><rect fill="rgb(233,255,219)" height="20" id="57" stroke="black" stroke-width="0.1" width="20" x="100" y="4"/><rect fill="rgb(211,255,181)" height="20" id="58" stroke="black" stroke-width="0.1" width="20" x="100" y="28"/><rect fill="rgb(189,255,145)" height="20" id="59" stroke="black" stroke-width="0.1" width="20" x="100" y="52"/><rect fill="rgb(168,255,110)" height="20" id="60" stroke="black" stroke-width="0.1" width="20" x="100" y="76"/><rect fill="rgb(146,255,74)" height="20" id="61" stroke="black" stroke-width="0.1" width="20" x="100" y="100"/><rect fill="rgb(124,255,36)" height="20" id="62" stroke="black" stroke-width="0.1" width="20" x="100" y="124"/><rect fill="rgb(102,255,0)" height="20" id="63" stroke="black" stroke-width="0.1" width="20" x="100" y="148"/><rect fill="rgb(93,232,0)" height="20" id="64" stroke="black" stroke-width="0.1" width="20" x="100" y="172"/><rect fill="rgb(85,212,0)" height="20" id="65" stroke="black" stroke-width="0.1" width="20" x="100" y="196"/><rect fill="rgb(76,189,0)" height="20" id="66" stroke="black" stroke-width="0.1" width="20" x="100" y="220"/><rect fill="rgb(67,168,0)" height="20" id="67" stroke="black" stroke-width="0.1" width="20" x="100" y="244"/><rect fill="rgb(58,145,0)" height="20" id="68" stroke="black" stroke-width="0.1" width="20" x="100" y="268"/><rect fill="rgb(50,125,0)" height="20" id="69" stroke="black" stroke-width="0.1" width="20" x="100" y="292"/><rect fill="rgb(41,102,0)" height="20" id="70" stroke="black" stroke-width="0.1" width="20" x="100" y="316"/><rect fill="rgb(219,255,219)" height="20" id="71" stroke="black" stroke-width="0.1" width="20" x="124" y="4"/><rect fill="rgb(181,255,181)" height="20" id="72" stroke="black" stroke-width="0.1" width="20" x="124" y="28"/><rect fill="rgb(145,255,145)" height="20" id="73" stroke="black" stroke-width="0.1" width="20" x="124" y="52"/><rect fill="rgb(110,255,110)" height="20" id="74" stroke="black" stroke-width="0.1" width="20" x="124" y="76"/><rect fill="rgb(74,255,74)" height="20" id="75" stroke="black" stroke-width="0.1" width="20" x="124" y="100"/><rect fill="rgb(36,255,36)" height="20" id="76" stroke="black" stroke-width="0.1" width="20" x="124" y="124"/><rect fill="rgb(0,255,0)" height="20" id="77" stroke="black" stroke-width="0.1" width="20" x="124" y="148"/><rect fill="rgb(0,232,0)" height="20" id="78" stroke="black" stroke-width="0.1" width="20" x="124" y="172"/><rect fill="rgb(0,212,0)" height="20" id="79" stroke="black" stroke-width="0.1" width="20" x="124" y="196"/><rect fill="rgb(0,189,0)" height="20" id="80" stroke="black" stroke-width="0.1" width="20" x="124" y="220"/><rect fill="rgb(0,168,0)" height="20" id="81" stroke="black" stroke-width="0.1" width="20" x="124" y="244"/><rect fill="rgb(0,145,0)" height="20" id="82" stroke="black" stroke-width="0.1" width="20" x="124" y="268"/><rect fill="rgb(0,125,0)" height="20" id="83" stroke="black" stroke-width="0.1" width="20" x="124" y="292"/><rect fill="rgb(0,102,0)" height="20" id="84" stroke="black" stroke-width="0.1" width="20" x="124" y="316"/><rect fill="rgb(219,255,233)" height="20" id="85" stroke="black" stroke-width="0.1" width="20" x="148" y="4"/><rect fill="rgb(181,255,211)" height="20" id="86" stroke="black" stroke-width="0.1" width="20" x="148" y="28"/><rect fill="rgb(145,255,189)" height="20" id="87" stroke="black" stroke-width="0.1" width="20" x="148" y="52"/><rect fill="rgb(110,255,168)" height="20" id="88" stroke="black" stroke-width="0.1" width="20" x="148" y="76"/><rect fill="rgb(74,255,146)" height="20" id="89" stroke="black" stroke-width="0.1" width="20" x="148" y="100"/><rect fill="rgb(36,255,124)" height="20" id="90" stroke="black" stroke-width="0.1" width="20" x="148" y="124"/><rect fill="rgb(0,255,102)" height="20" id="91" stroke="black" stroke-width="0.1" width="20" x="148" y="148"/><rect fill="rgb(0,232,93)" height="20" id="92" stroke="black" stroke-width="0.1" width="20" x="148" y="172"/><rect fill="rgb(0,212,85)" height="20" id="93" stroke="black" stroke-width="0.1" width="20" x="148" y="196"/><rect fill="rgb(0,189,76)" height="20" id="94" stroke="black" stroke-width="0.1" width="20" x="148" y="220"/><rect fill="rgb(0,168,67)" height="20" id="95" stroke="black" stroke-width="0.1" width="20" x="148" y="244"/><rect fill="rgb(0,145,58)" height="20" id="96" stroke="black" stroke-width="0.1" width="20" x="148" y="268"/><rect fill="rgb(0,125,50)" height="20" id="97" stroke="black" stroke-width="0.1" width="20" x="148" y="292"/><rect fill="rgb(0,102,41)" height="20" id="98" stroke="black" stroke-width="0.1" width="20" x="148" y="316"/><rect fill="rgb(219,255,248)" height="20" id="99" stroke="black" stroke-width="0.1" width="20" x="172" y="4"/><rect fill="rgb(181,255,240)" height="20" id="100" stroke="black" stroke-width="0.1" width="20" x="172" y="28"/><rect fill="rgb(145,255,233)" height="20" id="101" stroke="black" stroke-width="0.1" width="20" x="172" y="52"/><rect fill="rgb(110,255,226)" height="20" id="102" stroke="black" stroke-width="0.1" width="20" x="172" y="76"/><rect fill="rgb(74,255,219)" height="20" id="103" stroke="black" stroke-width="0.1" width="20" x="172" y="100"/><rect fill="rgb(36,255,211)" height="20" id="104" stroke="black" stroke-width="0.1" width="20" x="172" y="124"/><rect fill="rgb(0,255,204)" height="20" id="105" stroke="black" stroke-width="0.1" width="20" x="172" y="148"/><rect fill="rgb(0,232,186)" height="20" id="106" stroke="black" stroke-width="0.1" width="20" x="172" y="172"/><rect fill="rgb(0,212,170)" height="20" id="107" stroke="black" stroke-width="0.1" width="20" x="172" y="196"/><rect fill="rgb(0,189,151)" height="20" id="108" stroke="black" stroke-width="0.1" width="20" x="172" y="220"/><rect fill="rgb(0,168,134)" height="20" id="109" stroke="black" stroke-width="0.1" width="20" x="172" y="244"/><rect fill="rgb(0,145,116)" height="20" id="110" stroke="black" stroke-width="0.1" width="20" x="172" y="268"/><rect fill="rgb(0,125,100)" height="20" id="111" stroke="black" stroke-width="0.1" width="20" x="172" y="292"/><rect fill="rgb(0,102,82)" height="20" id="112" stroke="black" stroke-width="0.1" width="20" x="172" y="316"/><rect fill="rgb(219,248,255)" height="20" id="113" stroke="black" stroke-width="0.1" width="20" x="196" y="4"/><rect fill="rgb(181,240,255)" height="20" id="114" stroke="black" stroke-width="0.1" width="20" x="196" y="28"/><rect fill="rgb(145,233,255)" height="20" id="115" stroke="black" stroke-width="0.1" width="20" x="196" y="52"/><rect fill="rgb(110,226,255)" height="20" id="116" stroke="black" stroke-width="0.1" width="20" x="196" y="76"/><rect fill="rgb(74,219,255)" height="20" id="117" stroke="black" stroke-width="0.1" width="20" x="196" y="100"/><rect fill="rgb(36,211,255)" height="20" id="118" stroke="black" stroke-width="0.1" width="20" x="196" y="124"/><rect fill="rgb(0,204,255)" height="20" id="119" stroke="black" stroke-width="0.1" width="20" x="196" y="148"/><rect fill="rgb(0,186,232)" height="20" id="120" stroke="black" stroke-width="0.1" width="20" x="196" y="172"/><rect fill="rgb(0,170,212)" height="20" id="121" stroke="black" stroke-width="0.1" width="20" x="196" y="196"/><rect fill="rgb(0,151,189)" height="20" id="122" stroke="black" stroke-width="0.1" width="20" x="196" y="220"/><rect fill="rgb(0,134,168)" height="20" id="123" stroke="black" stroke-width="0.1" width="20" x="196" y="244"/><rect fill="rgb(0,116,145)" height="20" id="124" stroke="black" stroke-width="0.1" width="20" x="196" y="268"/><rect fill="rgb(0,100,125)" height="20" id="125" stroke="black" stroke-width="0.1" width="20" x="196" y="292"/><rect fill="rgb(0,82,102)" height="20" id="126" stroke="black" stroke-width="0.1" width="20" x="196" y="316"/><rect fill="rgb(219,233,255)" height="20" id="127" stroke="black" stroke-width="0.1" width="20" x="220" y="4"/><rect fill="rgb(181,211,255)" height="20" id="128" stroke="black" stroke-width="0.1" width="20" x="220" y="28"/><rect fill="rgb(145,189,255)" height="20" id="129" stroke="black" stroke-width="0.1" width="20" x="220" y="52"/><rect fill="rgb(110,168,255)" height="20" id="130" stroke="black" stroke-width="0.1" width="20" x="220" y="76"/><rect fill="rgb(74,146,255)" height="20" id="131" stroke="black" stroke-width="0.1" width="20" x="220" y="100"/><rect fill="rgb(36,124,255)" height="20" id="132" stroke="black" stroke-width="0.1" width="20" x="220" y="124"/><rect fill="rgb(0,102,255)" height="20" id="133" stroke="black" stroke-width="0.1" width="20" x="220" y="148"/><rect fill="rgb(0,93,232)" height="20" id="134" stroke="black" stroke-width="0.1" width="20" x="220" y="172"/><rect fill="rgb(0,85,212)" height="20" id="135" stroke="black" stroke-width="0.1" width="20" x="220" y="196"/><rect fill="rgb(0,76,189)" height="20" id="136" stroke="black" stroke-width="0.1" width="20" x="220" y="220"/><rect fill="rgb(0,67,168)" height="20" id="137" stroke="black" stroke-width="0.1" width="20" x="220" y="244"/><rect fill="rgb(0,58,145)" height="20" id="138" stroke="black" stroke-width="0.1" width="20" x="220" y="268"/><rect fill="rgb(0,50,125)" height="20" id="139" stroke="black" stroke-width="0.1" width="20" x="220" y="292"/><rect fill="rgb(0,41,102)" height="20" id="140" stroke="black" stroke-width="0.1" width="20" x="220" y="316"/><rect fill="rgb(219,219,255)" height="20" id="141" stroke="black" stroke-width="0.1" width="20" x="244" y="4"/><rect fill="rgb(181,181,255)" height="20" id="142" stroke="black" stroke-width="0.1" width="20" x="244" y="28"/><rect fill="rgb(145,145,255)" height="20" id="143" stroke="black" stroke-width="0.1" width="20" x="244" y="52"/><rect fill="rgb(110,110,255)" height="20" id="144" stroke="black" stroke-width="0.1" width="20" x="244" y="76"/><rect fill="rgb(74,74,255)" height="20" id="145" stroke="black" stroke-width="0.1" width="20" x="244" y="100"/><rect fill="rgb(36,36,255)" height="20" id="146" stroke="black" stroke-width="0.1" width="20" x="244" y="124"/><rect fill="rgb(0,0,255)" height="20" id="147" stroke="black" stroke-width="0.1" width="20" x="244" y="148"/><rect fill="rgb(0,0,232)" height="20" id="148" stroke="black" stroke-width="0.1" width="20" x="244" y="172"/><rect fill="rgb(0,0,212)" height="20" id="149" stroke="black" stroke-width="0.1" width="20" x="244" y="196"/><rect fill="rgb(0,0,189)" height="20" id="150" stroke="black" stroke-width="0.1" width="20" x="244" y="220"/><rect fill="rgb(0,0,168)" height="20" id="151" stroke="black" stroke-width="0.1" width="20" x="244" y="244"/><rect fill="rgb(0,0,145)" height="20" id="152" stroke="black" stroke-width="0.1" width="20" x="244" y="268"/><rect fill="rgb(0,0,125)" height="20" id="153" stroke="black" stroke-width="0.1" width="20" x="244" y="292"/><rect fill="rgb(0,0,102)" height="20" id="154" stroke="black" stroke-width="0.1" width="20" x="244" y="316"/><rect fill="rgb(233,219,255)" height="20" id="155" stroke="black" stroke-width="0.1" width="20" x="268" y="4"/><rect fill="rgb(211,181,255)" height="20" id="156" stroke="black" stroke-width="0.1" width="20" x="268" y="28"/><rect fill="rgb(189,145,255)" height="20" id="157" stroke="black" stroke-width="0.1" width="20" x="268" y="52"/><rect fill="rgb(168,110,255)" height="20" id="158" stroke="black" stroke-width="0.1" width="20" x="268" y="76"/><rect fill="rgb(146,74,255)" height="20" id="159" stroke="black" stroke-width="0.1" width="20" x="268" y="100"/><rect fill="rgb(124,36,255)" height="20" id="160" stroke="black" stroke-width="0.1" width="20" x="268" y="124"/><rect fill="rgb(102,0,255)" height="20" id="161" stroke="black" stroke-width="0.1" width="20" x="268" y="148"/><rect fill="rgb(93,0,232)" height="20" id="162" stroke="black" stroke-width="0.1" width="20" x="268" y="172"/><rect fill="rgb(85,0,212)" height="20" id="163" stroke="black" stroke-width="0.1" width="20" x="268" y="196"/><rect fill="rgb(76,0,189)" height="20" id="164" stroke="black" stroke-width="0.1" width="20" x="268" y="220"/><rect fill="rgb(67,0,168)" height="20" id="165" stroke="black" stroke-width="0.1" width="20" x="268" y="244"/><rect fill="rgb(58,0,145)" height="20" id="166" stroke="black" stroke-width="0.1" width="20" x="268" y="268"/><rect fill="rgb(50,0,125)" height="20" id="167" stroke="black" stroke-width="0.1" width="20" x="268" y="292"/><rect fill="rgb(41,0,102)" height="20" id="168" stroke="black" stroke-width="0.1" width="20" x="268" y="316"/><rect fill="rgb(248,219,255)" height="20" id="169" stroke="black" stroke-width="0.1" width="20" x="292" y="4"/><rect fill="rgb(240,181,255)" height="20" id="170" stroke="black" stroke-width="0.1" width="20" x="292" y="28"/><rect fill="rgb(233,145,255)" height="20" id="171" stroke="black" stroke-width="0.1" width="20" x="292" y="52"/><rect fill="rgb(226,110,255)" height="20" id="172" stroke="black" stroke-width="0.1" width="20" x="292" y="76"/><rect fill="rgb(219,74,255)" height="20" id="173" stroke="black" stroke-width="0.1" width="20" x="292" y="100"/><rect fill="rgb(211,36,255)" height="20" id="174" stroke="black" stroke-width="0.1" width="20" x="292" y="124"/><rect fill="rgb(204,0,255)" height="20" id="175" stroke="black" stroke-width="0.1" width="20" x="292" y="148"/><rect fill="rgb(186,0,232)" height="20" id="176" stroke="black" stroke-width="0.1" width="20" x="292" y="172"/><rect fill="rgb(170,0,212)" height="20" id="177" stroke="black" stroke-width="0.1" width="20" x="292" y="196"/><rect fill="rgb(151,0,189)" height="20" id="178" stroke="black" stroke-width="0.1" width="20" x="292" y="220"/><rect fill="rgb(134,0,168)" height="20" id="179" stroke="black" stroke-width="0.1" width="20" x="292" y="244"/><rect fill="rgb(116,0,145)" height="20" id="180" stroke="black" stroke-width="0.1" width="20" x="292" y="268"/><rect fill="rgb(100,0,125)" height="20" id="181" stroke="black" stroke-width="0.1" width="20" x="292" y="292"/><rect fill="rgb(82,0,102)" height="20" id="182" stroke="black" stroke-width="0.1" width="20" x="292" y="316"/><rect fill="rgb(255,219,248)" height="20" id="183" stroke="black" stroke-width="0.1" width="20" x="316" y="4"/><rect fill="rgb(255,181,240)" height="20" id="184" stroke="black" stroke-width="0.1" width="20" x="316" y="28"/><rect fill="rgb(255,145,233)" height="20" id="185" stroke="black" stroke-width="0.1" width="20" x="316" y="52"/><rect fill="rgb(255,110,226)" height="20" id="186" stroke="black" stroke-width="0.1" width="20" x="316" y="76"/><rect fill="rgb(255,74,219)" height="20" id="187" stroke="black" stroke-width="0.1" width="20" x="316" y="100"/><rect fill="rgb(255,36,211)" height="20" id="188" stroke="black" stroke-width="0.1" width="20" x="316" y="124"/><rect fill="rgb(255,0,204)" height="20" id="189" stroke="black" stroke-width="0.1" width="20" x="316" y="148"/><rect fill="rgb(232,0,186)" height="20" id="190" stroke="black" stroke-width="0.1" width="20" x="316" y="172"/><rect fill="rgb(212,0,170)" height="20" id="191" stroke="black" stroke-width="0.1" width="20" x="316" y="196"/><rect fill="rgb(189,0,151)" height="20" id="192" stroke="black" stroke-width="0.1" width="20" x="316" y="220"/><rect fill="rgb(168,0,134)" height="20" id="193" stroke="black" stroke-width="0.1" width="20" x="316" y="244"/><rect fill="rgb(145,0,116)" height="20" id="194" stroke="black" stroke-width="0.1" width="20" x="316" y="268"/><rect fill="rgb(125,0,100)" height="20" id="195" stroke="black" stroke-width="0.1" width="20" x="316" y="292"/><rect fill="rgb(102,0,82)" height="20" id="196" stroke="black" stroke-width="0.1" width="20" x="316" y="316"/><rect fill="rgb(255,219,233)" height="20" id="197" stroke="black" stroke-width="0.1" width="20" x="340" y="4"/><rect fill="rgb(255,181,211)" height="20" id="198" stroke="black" stroke-width="0.1" width="20" x="340" y="28"/><rect fill="rgb(255,145,189)" height="20" id="199" stroke="black" stroke-width="0.1" width="20" x="340" y="52"/><rect fill="rgb(255,110,168)" height="20" id="200" stroke="black" stroke-width="0.1" width="20" x="340" y="76"/><rect fill="rgb(255,74,146)" height="20" id="201" stroke="black" stroke-width="0.1" width="20" x="340" y="100"/><rect fill="rgb(255,36,124)" height="20" id="202" stroke="black" stroke-width="0.1" width="20" x="340" y="124"/><rect fill="rgb(255,0,102)" height="20" id="203" stroke="black" stroke-width="0.1" width="20" x="340" y="148"/><rect fill="rgb(232,0,93)" height="20" id="204" stroke="black" stroke-width="0.1" width="20" x="340" y="172"/><rect fill="rgb(212,0,85)" height="20" id="205" stroke="black" stroke-width="0.1" width="20" x="340" y="196"/><rect fill="rgb(189,0,76)" height="20" id="206" stroke="black" stroke-width="0.1" width="20" x="340" y="220"/><rect fill="rgb(168,0,67)" height="20" id="207" stroke="black" stroke-width="0.1" width="20" x="340" y="244"/><rect fill="rgb(145,0,58)" height="20" id="208" stroke="black" stroke-width="0.1" width="20" x="340" y="268"/><rect fill="rgb(125,0,50)" height="20" id="209" stroke="black" stroke-width="0.1" width="20" x="340" y="292"/><rect fill="rgb(102,0,41)" height="20" id="210" stroke="black" stroke-width="0.1" width="20" x="340" y="316"/><rect fill="rgb(255,255,255)" height="20" id="211" stroke="black" stroke-width="0.1" width="20" x="364" y="4"/><rect fill="rgb(235,235,235)" height="20" id="212" stroke="black" stroke-width="0.1" width="20" x="364" y="28"/><rect fill="rgb(217,217,217)" height="20" id="213" stroke="black" stroke-width="0.1" width="20" x="364" y="52"/><rect fill="rgb(196,196,196)" height="20" id="214" stroke="black" stroke-width="0.1" width="20" x="364" y="76"/><rect fill="rgb(176,176,176)" height="20" id="215" stroke="black" stroke-width="0.1" width="20" x="364" y="100"/><rect fill="rgb(158,158,158)" height="20" id="216" stroke="black" stroke-width="0.1" width="20" x="364" y="124"/><rect fill="rgb(138,138,138)" height="20" id="217" stroke="black" stroke-width="0.1" width="20" x="364" y="148"/><rect fill="rgb(117,117,117)" height="20" id="218" stroke="black" stroke-width="0.1" width="20" x="364" y="172"/><rect fill="rgb(97,97,97)" height="20" id="219" stroke="black" stroke-width="0.1" width="20" x="364" y="196"/><rect fill="rgb(79,79,79)" height="20" id="220" stroke="black" stroke-width="0.1" width="20" x="364" y="220"/><rect fill="rgb(59,59,59)" height="20" id="221" stroke="black" stroke-width="0.1" width="20" x="364" y="244"/><rect fill="rgb(38,38,38)" height="20" id="222" stroke="black" stroke-width="0.1" width="20" x="364" y="268"/><rect fill="rgb(20,20,20)" height="20" id="223" stroke="black" stroke-width="0.1" width="20" x="364" y="292"/><rect fill="rgb(0,0,0)" height="20" id="224" stroke="black" stroke-width="0.1" width="20" x="364" y="316"/></svg>