<?xml version="1.0" encoding="UTF-8" standalone="yes" ?><svg xmlns="http://www.w3.org/2000/svg" height="400" preserveAspectRatio="xMidYMid" viewBox="0 0 400 400" width="400"><title>palette</title><desc>palette</desc><metadata xmlns="http://www.4D.com/4DSVG"><generator>4D SVG Component version 15.0 ©2008-2015 4D SAS.</generator><about>4D SVG is the quintessential vector drawing tool for 4D developers.</about><generation date="2015-08-13Z" system="Mac OSX 10.10.4" time="PT17H48M9S"/></metadata><defs id="4D"/><circle cx="200" cy="200" fill="white" r="12" stroke="black" stroke-width="0"/><circle cx="222" cy="200" fill="rgb(255,191,191)" id="1" r="12" stroke="black" stroke-width="0"/><circle cx="211" cy="219.05255888326" fill="rgb(255,255,191)" id="2" r="12" stroke="black" stroke-width="0"/><circle cx="189" cy="219.05255888326" fill="rgb(191,255,191)" id="3" r="12" stroke="black" stroke-width="0"/><circle cx="178" cy="200" fill="rgb(191,255,255)" id="4" r="12" stroke="black" stroke-width="0"/><circle cx="189" cy="180.94744111674" fill="rgb(191,191,255)" id="5" r="12" stroke="black" stroke-width="0"/><circle cx="211" cy="180.94744111674" fill="rgb(255,191,255)" id="6" r="12" stroke="black" stroke-width="0"/><circle cx="244" cy="200" fill="rgb(255,128,128)" id="7" r="12" stroke="black" stroke-width="0"/><circle cx="238.10511776652" cy="222" fill="rgb(255,192,128)" id="8" r="12" stroke="black" stroke-width="0"/><circle cx="222" cy="238.10511776652" fill="rgb(255,255,128)" id="9" r="12" stroke="black" stroke-width="0"/><circle cx="200" cy="244" fill="rgb(192,255,128)" id="10" r="12" stroke="black" stroke-width="0"/><circle cx="178" cy="238.10511776652" fill="rgb(128,255,128)" id="11" r="12" stroke="black" stroke-width="0"/><circle cx="161.89488223348" cy="222" fill="rgb(128,255,192)" id="12" r="12" stroke="black" stroke-width="0"/><circle cx="156" cy="200" fill="rgb(128,255,255)" id="13" r="12" stroke="black" stroke-width="0"/><circle cx="161.89488223348" cy="178" fill="rgb(128,192,255)" id="14" r="12" stroke="black" stroke-width="0"/><circle cx="178" cy="161.89488223348" fill="rgb(128,128,255)" id="15" r="12" stroke="black" stroke-width="0"/><circle cx="200" cy="156" fill="rgb(192,128,255)" id="16" r="12" stroke="black" stroke-width="0"/><circle cx="222" cy="161.89488223348" fill="rgb(255,128,255)" id="17" r="12" stroke="black" stroke-width="0"/><circle cx="238.10511776652" cy="178" fill="rgb(255,128,192)" id="18" r="12" stroke="black" stroke-width="0"/><circle cx="266" cy="200" fill="rgb(255,64,64)" id="19" r="12" stroke="black" stroke-width="0"/><circle cx="262.01971297187" cy="222.57332945949" fill="rgb(255,128,64)" id="20" r="12" stroke="black" stroke-width="0"/><circle cx="250.55893324585" cy="242.42398223931" fill="rgb(255,191,64)" id="21" r="12" stroke="black" stroke-width="0"/><circle cx="233" cy="257.15767664977" fill="rgb(255,255,64)" id="22" r="12" stroke="black" stroke-width="0"/><circle cx="211.46077972602" cy="264.99731169881" fill="rgb(191,255,64)" id="23" r="12" stroke="black" stroke-width="0"/><circle cx="188.53922027398" cy="264.99731169881" fill="rgb(128,255,64)" id="24" r="12" stroke="black" stroke-width="0"/><circle cx="167" cy="257.15767664977" fill="rgb(64,255,64)" id="25" r="12" stroke="black" stroke-width="0"/><circle cx="149.44106675415" cy="242.42398223931" fill="rgb(64,255,128)" id="26" r="12" stroke="black" stroke-width="0"/><circle cx="137.98028702813" cy="222.57332945949" fill="rgb(64,255,191)" id="27" r="12" stroke="black" stroke-width="0"/><circle cx="134" cy="200" fill="rgb(64,255,255)" id="28" r="12" stroke="black" stroke-width="0"/><circle cx="137.98028702813" cy="177.42667054051" fill="rgb(64,191,255)" id="29" r="12" stroke="black" stroke-width="0"/><circle cx="149.44106675415" cy="157.57601776069" fill="rgb(64,128,255)" id="30" r="12" stroke="black" stroke-width="0"/><circle cx="167" cy="142.84232335023" fill="rgb(64,64,255)" id="31" r="12" stroke="black" stroke-width="0"/><circle cx="188.53922027398" cy="135.00268830119" fill="rgb(128,64,255)" id="32" r="12" stroke="black" stroke-width="0"/><circle cx="211.46077972602" cy="135.00268830119" fill="rgb(191,64,255)" id="33" r="12" stroke="black" stroke-width="0"/><circle cx="233" cy="142.84232335023" fill="rgb(255,64,255)" id="34" r="12" stroke="black" stroke-width="0"/><circle cx="250.55893324585" cy="157.57601776069" fill="rgb(255,64,191)" id="35" r="12" stroke="black" stroke-width="0"/><circle cx="262.01971297187" cy="177.42667054051" fill="rgb(255,64,128)" id="36" r="12" stroke="black" stroke-width="0"/><circle cx="288" cy="200" fill="rgb(255,0,0)" id="37" r="12" stroke="black" stroke-width="0"/><circle cx="285.00147271344" cy="222.77607596902" fill="rgb(255,64,0)" id="38" r="12" stroke="black" stroke-width="0"/><circle cx="276.21023553303" cy="244" fill="rgb(255,128,0)" id="39" r="12" stroke="black" stroke-width="0"/><circle cx="262.22539674442" cy="262.22539674442" fill="rgb(255,191,0)" id="40" r="12" stroke="black" stroke-width="0"/><circle cx="244" cy="276.21023553303" fill="rgb(255,255,0)" id="41" r="12" stroke="black" stroke-width="0"/><circle cx="222.77607596902" cy="285.00147271344" fill="rgb(191,255,0)" id="42" r="12" stroke="black" stroke-width="0"/><circle cx="200" cy="288" fill="rgb(128,255,0)" id="43" r="12" stroke="black" stroke-width="0"/><circle cx="177.22392403098" cy="285.00147271344" fill="rgb(64,255,0)" id="44" r="12" stroke="black" stroke-width="0"/><circle cx="156" cy="276.21023553303" fill="rgb(0,255,0)" id="45" r="12" stroke="black" stroke-width="0"/><circle cx="137.77460325558" cy="262.22539674442" fill="rgb(0,255,64)" id="46" r="12" stroke="black" stroke-width="0"/><circle cx="123.78976446697" cy="244" fill="rgb(0,255,128)" id="47" r="12" stroke="black" stroke-width="0"/><circle cx="114.99852728656" cy="222.77607596902" fill="rgb(0,255,191)" id="48" r="12" stroke="black" stroke-width="0"/><circle cx="112" cy="200" fill="rgb(0,255,255)" id="49" r="12" stroke="black" stroke-width="0"/><circle cx="114.99852728656" cy="177.22392403098" fill="rgb(0,191,255)" id="50" r="12" stroke="black" stroke-width="0"/><circle cx="123.78976446697" cy="156" fill="rgb(0,128,255)" id="51" r="12" stroke="black" stroke-width="0"/><circle cx="137.77460325558" cy="137.77460325558" fill="rgb(0,64,255)" id="52" r="12" stroke="black" stroke-width="0"/><circle cx="156" cy="123.78976446697" fill="rgb(0,0,255)" id="53" r="12" stroke="black" stroke-width="0"/><circle cx="177.22392403098" cy="114.99852728656" fill="rgb(64,0,255)" id="54" r="12" stroke="black" stroke-width="0"/><circle cx="200" cy="112" fill="rgb(128,0,255)" id="55" r="12" stroke="black" stroke-width="0"/><circle cx="222.77607596902" cy="114.99852728656" fill="rgb(191,0,255)" id="56" r="12" stroke="black" stroke-width="0"/><circle cx="244" cy="123.78976446697" fill="rgb(255,0,255)" id="57" r="12" stroke="black" stroke-width="0"/><circle cx="262.22539674442" cy="137.77460325558" fill="rgb(255,0,191)" id="58" r="12" stroke="black" stroke-width="0"/><circle cx="276.21023553303" cy="156" fill="rgb(255,0,128)" id="59" r="12" stroke="black" stroke-width="0"/><circle cx="285.00147271344" cy="177.22392403098" fill="rgb(255,0,64)" id="60" r="12" stroke="black" stroke-width="0"/><circle cx="310" cy="200" fill="rgb(217,0,0)" id="61" r="12" stroke="black" stroke-width="0"/><circle cx="307.59623608072" cy="222.87028598995" fill="rgb(217,43,0)" id="62" r="12" stroke="black" stroke-width="0"/><circle cx="300.49000034069" cy="244.74103073834" fill="rgb(217,87,0)" id="63" r="12" stroke="black" stroke-width="0"/><circle cx="288.99186938124" cy="264.65637775217" fill="rgb(217,130,0)" id="64" r="12" stroke="black" stroke-width="0"/><circle cx="273.60436669947" cy="281.74593080251" fill="rgb(217,174,0)" id="65" r="12" stroke="black" stroke-width="0"/><circle cx="255" cy="295.26279441629" fill="rgb(217,217,0)" id="66" r="12" stroke="black" stroke-width="0"/><circle cx="233.99186938124" cy="304.61621679247" fill="rgb(174,217,0)" id="67" r="12" stroke="black" stroke-width="0"/><circle cx="211.49813095944" cy="309.39740849051" fill="rgb(130,217,0)" id="68" r="12" stroke="black" stroke-width="0"/><circle cx="188.50186904056" cy="309.39740849051" fill="rgb(87,217,0)" id="69" r="12" stroke="black" stroke-width="0"/><circle cx="166.00813061876" cy="304.61621679247" fill="rgb(43,217,0)" id="70" r="12" stroke="black" stroke-width="0"/><circle cx="145" cy="295.26279441629" fill="rgb(0,217,0)" id="71" r="12" stroke="black" stroke-width="0"/><circle cx="126.39563330053" cy="281.74593080251" fill="rgb(0,217,43)" id="72" r="12" stroke="black" stroke-width="0"/><circle cx="111.00813061876" cy="264.65637775217" fill="rgb(0,217,87)" id="73" r="12" stroke="black" stroke-width="0"/><circle cx="99.509999659314" cy="244.74103073834" fill="rgb(0,217,130)" id="74" r="12" stroke="black" stroke-width="0"/><circle cx="92.403763919281" cy="222.87028598995" fill="rgb(0,217,174)" id="75" r="12" stroke="black" stroke-width="0"/><circle cx="90" cy="200" fill="rgb(0,217,217)" id="76" r="12" stroke="black" stroke-width="0"/><circle cx="92.403763919281" cy="177.12971401005" fill="rgb(0,174,217)" id="77" r="12" stroke="black" stroke-width="0"/><circle cx="99.509999659314" cy="155.25896926166" fill="rgb(0,130,217)" id="78" r="12" stroke="black" stroke-width="0"/><circle cx="111.00813061876" cy="135.34362224783" fill="rgb(0,87,217)" id="79" r="12" stroke="black" stroke-width="0"/><circle cx="126.39563330053" cy="118.25406919749" fill="rgb(0,43,217)" id="80" r="12" stroke="black" stroke-width="0"/><circle cx="145" cy="104.73720558371" fill="rgb(0,0,217)" id="81" r="12" stroke="black" stroke-width="0"/><circle cx="166.00813061876" cy="95.383783207533" fill="rgb(43,0,217)" id="82" r="12" stroke="black" stroke-width="0"/><circle cx="188.50186904056" cy="90.60259150949" fill="rgb(87,0,217)" id="83" r="12" stroke="black" stroke-width="0"/><circle cx="211.49813095944" cy="90.60259150949" fill="rgb(130,0,217)" id="84" r="12" stroke="black" stroke-width="0"/><circle cx="233.99186938124" cy="95.383783207533" fill="rgb(174,0,217)" id="85" r="12" stroke="black" stroke-width="0"/><circle cx="255" cy="104.73720558371" fill="rgb(217,0,217)" id="86" r="12" stroke="black" stroke-width="0"/><circle cx="273.60436669947" cy="118.25406919749" fill="rgb(217,0,174)" id="87" r="12" stroke="black" stroke-width="0"/><circle cx="288.99186938124" cy="135.34362224783" fill="rgb(217,0,130)" id="88" r="12" stroke="black" stroke-width="0"/><circle cx="300.49000034069" cy="155.25896926166" fill="rgb(217,0,87)" id="89" r="12" stroke="black" stroke-width="0"/><circle cx="307.59623608072" cy="177.12971401005" fill="rgb(217,0,43)" id="90" r="12" stroke="black" stroke-width="0"/><circle cx="332" cy="200" fill="rgb(178,0,0)" id="91" r="12" stroke="black" stroke-width="0"/><circle cx="329.99462339761" cy="222.92155945203" fill="rgb(178,30,0)" id="92" r="12" stroke="black" stroke-width="0"/><circle cx="324.03942594374" cy="245.14665891899" fill="rgb(178,59,0)" id="93" r="12" stroke="black" stroke-width="0"/><circle cx="314.31535329955" cy="266" fill="rgb(178,89,0)" id="94" r="12" stroke="black" stroke-width="0"/><circle cx="301.11786649171" cy="284.84796447862" fill="rgb(178,119,0)" id="95" r="12" stroke="black" stroke-width="0"/><circle cx="284.84796447862" cy="301.11786649171" fill="rgb(178,148,0)" id="96" r="12" stroke="black" stroke-width="0"/><circle cx="266" cy="314.31535329955" fill="rgb(178,178,0)" id="97" r="12" stroke="black" stroke-width="0"/><circle cx="245.14665891899" cy="324.03942594374" fill="rgb(148,178,0)" id="98" r="12" stroke="black" stroke-width="0"/><circle cx="222.92155945203" cy="329.99462339761" fill="rgb(119,178,0)" id="99" r="12" stroke="black" stroke-width="0"/><circle cx="200" cy="332" fill="rgb(89,178,0)" id="100" r="12" stroke="black" stroke-width="0"/><circle cx="177.07844054797" cy="329.99462339761" fill="rgb(59,178,0)" id="101" r="12" stroke="black" stroke-width="0"/><circle cx="154.85334108101" cy="324.03942594374" fill="rgb(30,178,0)" id="102" r="12" stroke="black" stroke-width="0"/><circle cx="134" cy="314.31535329955" fill="rgb(0,178,0)" id="103" r="12" stroke="black" stroke-width="0"/><circle cx="115.15203552138" cy="301.11786649171" fill="rgb(0,178,30)" id="104" r="12" stroke="black" stroke-width="0"/><circle cx="98.882133508295" cy="284.84796447862" fill="rgb(0,178,59)" id="105" r="12" stroke="black" stroke-width="0"/><circle cx="85.684646700454" cy="266" fill="rgb(0,178,89)" id="106" r="12" stroke="black" stroke-width="0"/><circle cx="75.96057405626" cy="245.14665891899" fill="rgb(0,178,119)" id="107" r="12" stroke="black" stroke-width="0"/><circle cx="70.005376602389" cy="222.92155945203" fill="rgb(0,178,148)" id="108" r="12" stroke="black" stroke-width="0"/><circle cx="68" cy="200" fill="rgb(0,178,178)" id="109" r="12" stroke="black" stroke-width="0"/><circle cx="70.005376602389" cy="177.07844054797" fill="rgb(0,148,178)" id="110" r="12" stroke="black" stroke-width="0"/><circle cx="75.96057405626" cy="154.85334108101" fill="rgb(0,119,178)" id="111" r="12" stroke="black" stroke-width="0"/><circle cx="85.684646700454" cy="134" fill="rgb(0,89,178)" id="112" r="12" stroke="black" stroke-width="0"/><circle cx="98.882133508295" cy="115.15203552138" fill="rgb(0,59,178)" id="113" r="12" stroke="black" stroke-width="0"/><circle cx="115.15203552138" cy="98.882133508295" fill="rgb(0,30,178)" id="114" r="12" stroke="black" stroke-width="0"/><circle cx="134" cy="85.684646700454" fill="rgb(0,0,178)" id="115" r="12" stroke="black" stroke-width="0"/><circle cx="154.85334108101" cy="75.96057405626" fill="rgb(30,0,178)" id="116" r="12" stroke="black" stroke-width="0"/><circle cx="177.07844054797" cy="70.005376602389" fill="rgb(59,0,178)" id="117" r="12" stroke="black" stroke-width="0"/><circle cx="200" cy="68" fill="rgb(89,0,178)" id="118" r="12" stroke="black" stroke-width="0"/><circle cx="222.92155945203" cy="70.005376602389" fill="rgb(119,0,178)" id="119" r="12" stroke="black" stroke-width="0"/><circle cx="245.14665891899" cy="75.96057405626" fill="rgb(148,0,178)" id="120" r="12" stroke="black" stroke-width="0"/><circle cx="266" cy="85.684646700454" fill="rgb(178,0,178)" id="121" r="12" stroke="black" stroke-width="0"/><circle cx="284.84796447862" cy="98.882133508295" fill="rgb(178,0,148)" id="122" r="12" stroke="black" stroke-width="0"/><circle cx="301.11786649171" cy="115.15203552138" fill="rgb(178,0,119)" id="123" r="12" stroke="black" stroke-width="0"/><circle cx="314.31535329955" cy="134" fill="rgb(178,0,89)" id="124" r="12" stroke="black" stroke-width="0"/><circle cx="324.03942594374" cy="154.85334108101" fill="rgb(178,0,59)" id="125" r="12" stroke="black" stroke-width="0"/><circle cx="329.99462339761" cy="177.07844054797" fill="rgb(178,0,30)" id="126" r="12" stroke="black" stroke-width="0"/><circle cx="354" cy="200" fill="rgb(140,0,0)" id="127" r="12" stroke="black" stroke-width="0"/><circle cx="352.27994723867" cy="222.95250899113" fill="rgb(140,21,0)" id="128" r="12" stroke="black" stroke-width="0"/><circle cx="347.15821209107" cy="245.39229685928" fill="rgb(140,40,0)" id="129" r="12" stroke="black" stroke-width="0"/><circle cx="338.74920565697" cy="266.8180958241" fill="rgb(140,61,0)" id="130" r="12" stroke="black" stroke-width="0"/><circle cx="327.24077124466" cy="286.7512889418" fill="rgb(140,79,0)" id="131" r="12" stroke="black" stroke-width="0"/><circle cx="312.88998826179" cy="304.74660161672" fill="rgb(140,100,0)" id="132" r="12" stroke="black" stroke-width="0"/><circle cx="296.01742948624" cy="320.40204830008" fill="rgb(140,119,0)" id="133" r="12" stroke="black" stroke-width="0"/><circle cx="277" cy="333.3679121828" fill="rgb(140,140,0)" id="134" r="12" stroke="black" stroke-width="0"/><circle cx="256.26251775242" cy="343.35455729121" fill="rgb(119,140,0)" id="135" r="12" stroke="black" stroke-width="0"/><circle cx="234.26822382927" cy="350.138898476" fill="rgb(100,140,0)" id="136" r="12" stroke="black" stroke-width="0"/><circle cx="211.50843441231" cy="353.5693847659" fill="rgb(79,140,0)" id="137" r="12" stroke="black" stroke-width="0"/><circle cx="188.49156558769" cy="353.5693847659" fill="rgb(61,140,0)" id="138" r="12" stroke="black" stroke-width="0"/><circle cx="165.73177617073" cy="350.138898476" fill="rgb(40,140,0)" id="139" r="12" stroke="black" stroke-width="0"/><circle cx="143.73748224758" cy="343.35455729121" fill="rgb(21,140,0)" id="140" r="12" stroke="black" stroke-width="0"/><circle cx="123" cy="333.3679121828" fill="rgb(0,140,0)" id="141" r="12" stroke="black" stroke-width="0"/><circle cx="103.98257051376" cy="320.40204830008" fill="rgb(0,140,21)" id="142" r="12" stroke="black" stroke-width="0"/><circle cx="87.110011738207" cy="304.74660161672" fill="rgb(0,140,40)" id="143" r="12" stroke="black" stroke-width="0"/><circle cx="72.759228755337" cy="286.7512889418" fill="rgb(0,140,61)" id="144" r="12" stroke="black" stroke-width="0"/><circle cx="61.250794343027" cy="266.8180958241" fill="rgb(0,140,79)" id="145" r="12" stroke="black" stroke-width="0"/><circle cx="52.841787908934" cy="245.39229685928" fill="rgb(0,140,100)" id="146" r="12" stroke="black" stroke-width="0"/><circle cx="47.72005276133" cy="222.95250899113" fill="rgb(0,140,119)" id="147" r="12" stroke="black" stroke-width="0"/><circle cx="46" cy="200" fill="rgb(0,140,140)" id="148" r="12" stroke="black" stroke-width="0"/><circle cx="47.72005276133" cy="177.04749100887" fill="rgb(0,119,140)" id="149" r="12" stroke="black" stroke-width="0"/><circle cx="52.841787908934" cy="154.60770314072" fill="rgb(0,100,140)" id="150" r="12" stroke="black" stroke-width="0"/><circle cx="61.250794343028" cy="133.1819041759" fill="rgb(0,79,140)" id="151" r="12" stroke="black" stroke-width="0"/><circle cx="72.759228755337" cy="113.2487110582" fill="rgb(0,61,140)" id="152" r="12" stroke="black" stroke-width="0"/><circle cx="87.110011738207" cy="95.253398383278" fill="rgb(0,40,140)" id="153" r="12" stroke="black" stroke-width="0"/><circle cx="103.98257051376" cy="79.597951699923" fill="rgb(0,21,140)" id="154" r="12" stroke="black" stroke-width="0"/><circle cx="123" cy="66.632087817196" fill="rgb(0,0,140)" id="155" r="12" stroke="black" stroke-width="0"/><circle cx="143.73748224758" cy="56.645442708792" fill="rgb(21,0,140)" id="156" r="12" stroke="black" stroke-width="0"/><circle cx="165.73177617073" cy="49.861101523999" fill="rgb(40,0,140)" id="157" r="12" stroke="black" stroke-width="0"/><circle cx="188.49156558769" cy="46.430615234098" fill="rgb(61,0,140)" id="158" r="12" stroke="black" stroke-width="0"/><circle cx="211.50843441231" cy="46.430615234098" fill="rgb(79,0,140)" id="159" r="12" stroke="black" stroke-width="0"/><circle cx="234.26822382927" cy="49.861101523999" fill="rgb(100,0,140)" id="160" r="12" stroke="black" stroke-width="0"/><circle cx="256.26251775243" cy="56.645442708793" fill="rgb(119,0,140)" id="161" r="12" stroke="black" stroke-width="0"/><circle cx="277" cy="66.632087817197" fill="rgb(140,0,140)" id="162" r="12" stroke="black" stroke-width="0"/><circle cx="296.01742948625" cy="79.597951699923" fill="rgb(140,0,119)" id="163" r="12" stroke="black" stroke-width="0"/><circle cx="312.88998826179" cy="95.253398383278" fill="rgb(140,0,100)" id="164" r="12" stroke="black" stroke-width="0"/><circle cx="327.24077124466" cy="113.2487110582" fill="rgb(140,0,79)" id="165" r="12" stroke="black" stroke-width="0"/><circle cx="338.74920565697" cy="133.1819041759" fill="rgb(140,0,61)" id="166" r="12" stroke="black" stroke-width="0"/><circle cx="347.15821209107" cy="154.60770314072" fill="rgb(140,0,40)" id="167" r="12" stroke="black" stroke-width="0"/><circle cx="352.27994723867" cy="177.04749100887" fill="rgb(140,0,21)" id="168" r="12" stroke="black" stroke-width="0"/><circle cx="376" cy="200" fill="rgb(102,0,0)" id="169" r="12" stroke="black" stroke-width="0"/><circle cx="374.49429560179" cy="222.97260983073" fill="rgb(102,14,0)" id="170" r="12" stroke="black" stroke-width="0"/><circle cx="370.00294542688" cy="245.55215193804" fill="rgb(102,26,0)" id="171" r="12" stroke="black" stroke-width="0"/><circle cx="362.60279772199" cy="267.35228409626" fill="rgb(102,37,0)" id="172" r="12" stroke="black" stroke-width="0"/><circle cx="352.42047106606" cy="288" fill="rgb(102,51,0)" id="173" r="12" stroke="black" stroke-width="0"/><circle cx="339.63018789126" cy="307.14201150553" fill="rgb(102,65,0)" id="174" r="12" stroke="black" stroke-width="0"/><circle cx="324.45079348883" cy="324.45079348883" fill="rgb(102,76,0)" id="175" r="12" stroke="black" stroke-width="0"/><circle cx="307.14201150553" cy="339.63018789126" fill="rgb(102,88,0)" id="176" r="12" stroke="black" stroke-width="0"/><circle cx="288" cy="352.42047106606" fill="rgb(102,102,0)" id="177" r="12" stroke="black" stroke-width="0"/><circle cx="267.35228409626" cy="362.60279772199" fill="rgb(88,102,0)" id="178" r="12" stroke="black" stroke-width="0"/><circle cx="245.55215193804" cy="370.00294542688" fill="rgb(76,102,0)" id="179" r="12" stroke="black" stroke-width="0"/><circle cx="222.97260983073" cy="374.49429560179" fill="rgb(65,102,0)" id="180" r="12" stroke="black" stroke-width="0"/><circle cx="200" cy="376" fill="rgb(51,102,0)" id="181" r="12" stroke="black" stroke-width="0"/><circle cx="177.02739016927" cy="374.49429560179" fill="rgb(37,102,0)" id="182" r="12" stroke="black" stroke-width="0"/><circle cx="154.44784806196" cy="370.00294542688" fill="rgb(26,102,0)" id="183" r="12" stroke="black" stroke-width="0"/><circle cx="132.64771590374" cy="362.60279772199" fill="rgb(14,102,0)" id="184" r="12" stroke="black" stroke-width="0"/><circle cx="112" cy="352.42047106606" fill="rgb(0,102,0)" id="185" r="12" stroke="black" stroke-width="0"/><circle cx="92.857988494465" cy="339.63018789126" fill="rgb(0,102,14)" id="186" r="12" stroke="black" stroke-width="0"/><circle cx="75.549206511168" cy="324.45079348883" fill="rgb(0,102,26)" id="187" r="12" stroke="black" stroke-width="0"/><circle cx="60.369812108743" cy="307.14201150553" fill="rgb(0,102,37)" id="188" r="12" stroke="black" stroke-width="0"/><circle cx="47.579528933939" cy="288" fill="rgb(0,102,51)" id="189" r="12" stroke="black" stroke-width="0"/><circle cx="37.397202278014" cy="267.35228409626" fill="rgb(0,102,65)" id="190" r="12" stroke="black" stroke-width="0"/><circle cx="29.997054573124" cy="245.55215193804" fill="rgb(0,102,76)" id="191" r="12" stroke="black" stroke-width="0"/><circle cx="25.505704398209" cy="222.97260983073" fill="rgb(0,102,88)" id="192" r="12" stroke="black" stroke-width="0"/><circle cx="24" cy="200" fill="rgb(0,102,102)" id="193" r="12" stroke="black" stroke-width="0"/><circle cx="25.505704398209" cy="177.02739016927" fill="rgb(0,88,102)" id="194" r="12" stroke="black" stroke-width="0"/><circle cx="29.997054573124" cy="154.44784806196" fill="rgb(0,76,102)" id="195" r="12" stroke="black" stroke-width="0"/><circle cx="37.397202278013" cy="132.64771590374" fill="rgb(0,65,102)" id="196" r="12" stroke="black" stroke-width="0"/><circle cx="47.579528933939" cy="112" fill="rgb(0,51,102)" id="197" r="12" stroke="black" stroke-width="0"/><circle cx="60.369812108743" cy="92.857988494465" fill="rgb(0,37,102)" id="198" r="12" stroke="black" stroke-width="0"/><circle cx="75.549206511168" cy="75.549206511168" fill="rgb(0,26,102)" id="199" r="12" stroke="black" stroke-width="0"/><circle cx="92.857988494465" cy="60.369812108743" fill="rgb(0,14,102)" id="200" r="12" stroke="black" stroke-width="0"/><circle cx="112" cy="47.579528933939" fill="rgb(0,0,102)" id="201" r="12" stroke="black" stroke-width="0"/><circle cx="132.64771590374" cy="37.397202278014" fill="rgb(14,0,102)" id="202" r="12" stroke="black" stroke-width="0"/><circle cx="154.44784806196" cy="29.997054573124" fill="rgb(26,0,102)" id="203" r="12" stroke="black" stroke-width="0"/><circle cx="177.02739016927" cy="25.505704398209" fill="rgb(37,0,102)" id="204" r="12" stroke="black" stroke-width="0"/><circle cx="200" cy="24" fill="rgb(51,0,102)" id="205" r="12" stroke="black" stroke-width="0"/><circle cx="222.97260983073" cy="25.505704398209" fill="rgb(65,0,102)" id="206" r="12" stroke="black" stroke-width="0"/><circle cx="245.55215193804" cy="29.997054573124" fill="rgb(76,0,102)" id="207" r="12" stroke="black" stroke-width="0"/><circle cx="267.35228409626" cy="37.397202278014" fill="rgb(88,0,102)" id="208" r="12" stroke="black" stroke-width="0"/><circle cx="288" cy="47.579528933939" fill="rgb(102,0,102)" id="209" r="12" stroke="black" stroke-width="0"/><circle cx="307.14201150553" cy="60.369812108743" fill="rgb(102,0,88)" id="210" r="12" stroke="black" stroke-width="0"/><circle cx="324.45079348883" cy="75.549206511168" fill="rgb(102,0,76)" id="211" r="12" stroke="black" stroke-width="0"/><circle cx="339.63018789126" cy="92.857988494465" fill="rgb(102,0,65)" id="212" r="12" stroke="black" stroke-width="0"/><circle cx="352.42047106606" cy="112" fill="rgb(102,0,51)" id="213" r="12" stroke="black" stroke-width="0"/><circle cx="362.60279772199" cy="132.64771590374" fill="rgb(102,0,37)" id="214" r="12" stroke="black" stroke-width="0"/><circle cx="370.00294542688" cy="154.44784806196" fill="rgb(102,0,26)" id="215" r="12" stroke="black" stroke-width="0"/><circle cx="374.49429560179" cy="177.02739016927" fill="rgb(102,0,14)" id="216" r="12" stroke="black" stroke-width="0"/></svg>