<?xml version="1.0" encoding="UTF-8"?>
<svg id="Calque_1" xmlns="http://www.w3.org/2000/svg" version="1.1" viewBox="0 0 64 256">
  <!-- Generator: Adobe Illustrator 30.3.0, SVG Export Plug-In . SVG Version: 2.1.3 Build 182)  -->
  <defs>
    <style>
      .st0 {
        fill: #39b1e5;
      }

      .st0, .st1, .st2 {
        fill-rule: evenodd;
      }

      .st1 {
        fill: #555;
      }

      .st2 {
        fill: #cbcbcb;
      }
    </style>
  </defs>
  <path class="st1" d="M38.66,22.27c4.42,2.38,7.45,7.04,7.45,12.4,0,7.77-6.33,14.06-14.11,14.06s-14.11-6.31-14.11-14.06c0-5.39,3.05-10.08,7.53-12.44.86-.45,1.2-1.53.75-2.4-.45-.86-1.55-1.2-2.42-.75-5.6,2.95-9.44,8.83-9.44,15.59,0,9.73,7.92,17.63,17.69,17.63s17.69-7.9,17.69-17.63c0-6.72-3.77-12.56-9.34-15.53-.86-.47-1.95-.14-2.42.73s-.14,1.95.73,2.42h0v-.02ZM29.96,16.02v11.13c0,.94.88,1.71,1.99,1.71s1.99-.77,1.99-1.71v-11.13c0-.94-.88-1.71-1.99-1.71s-1.99.77-1.99,1.71Z"/>
  <path class="st0" d="M38.62,85.28c4.42,2.38,7.45,7.04,7.45,12.4,0,7.77-6.33,14.06-14.11,14.06s-14.11-6.31-14.11-14.06c0-5.39,3.05-10.08,7.53-12.44.86-.45,1.2-1.53.75-2.4-.45-.86-1.55-1.2-2.42-.75-5.6,2.95-9.44,8.83-9.44,15.59,0,9.73,7.92,17.63,17.69,17.63s17.69-7.9,17.69-17.63c0-6.72-3.77-12.56-9.34-15.53-.86-.47-1.95-.14-2.42.73s-.14,1.95.73,2.42h0v-.02ZM29.91,79.03v11.13c0,.94.88,1.71,1.99,1.71s1.99-.77,1.99-1.71v-11.13c0-.94-.88-1.71-1.99-1.71s-1.99.77-1.99,1.71Z"/>
  <path class="st1" d="M38.62,148.57c4.42,2.38,7.45,7.04,7.45,12.4,0,7.77-6.33,14.06-14.11,14.06s-14.11-6.31-14.11-14.06c0-5.39,3.05-10.08,7.53-12.44.86-.45,1.2-1.53.75-2.4s-1.55-1.2-2.42-.75c-5.6,2.95-9.44,8.83-9.44,15.59,0,9.73,7.92,17.63,17.69,17.63s17.69-7.9,17.69-17.63c0-6.72-3.77-12.56-9.34-15.53-.86-.47-1.95-.14-2.42.73s-.14,1.95.73,2.42h0v-.02ZM29.91,142.31v11.13c0,.94.88,1.71,1.99,1.71s1.99-.77,1.99-1.71v-11.13c0-.94-.88-1.71-1.99-1.71s-1.99.77-1.99,1.71Z"/>
  <path class="st2" d="M38.66,211.62c4.42,2.38,7.45,7.04,7.45,12.4,0,7.77-6.33,14.06-14.11,14.06s-14.11-6.31-14.11-14.06c0-5.39,3.05-10.08,7.53-12.44.86-.45,1.2-1.53.75-2.4s-1.55-1.2-2.42-.75c-5.6,2.95-9.44,8.83-9.44,15.59,0,9.73,7.92,17.63,17.69,17.63s17.69-7.9,17.69-17.63c0-6.72-3.77-12.56-9.34-15.53-.86-.47-1.95-.14-2.42.73s-.14,1.95.73,2.42h0v-.02ZM29.96,205.37v11.13c0,.94.88,1.71,1.99,1.71s1.99-.77,1.99-1.71v-11.13c0-.94-.88-1.71-1.99-1.71s-1.99.77-1.99,1.71Z"/>
</svg>