<?xml version="1.0" encoding="UTF-8"?>
<svg id="Calque_1" xmlns="http://www.w3.org/2000/svg" version="1.1" viewBox="0 0 32 128">
  <!-- Generator: Adobe Illustrator 30.3.0, SVG Export Plug-In . SVG Version: 2.1.3 Build 182)  -->
  <defs>
    <style>
      .st0 {
        fill: #39b1e5;
      }

      .st1 {
        fill: #cbcbcb;
      }

      .st2 {
        fill: #555;
      }
    </style>
  </defs>
  <g>
    <path class="st2" d="M19.13,11.33l-.35.64c1.84,1.01,2.98,2.95,2.98,5.04,0,3.17-2.58,5.76-5.76,5.76s-5.76-2.58-5.76-5.76c0-2.19,1.21-4.16,3.16-5.14l-.33-.65c-2.2,1.11-3.57,3.33-3.57,5.79,0,3.58,2.91,6.49,6.49,6.49s6.48-2.91,6.48-6.49c0-2.36-1.29-4.54-3.36-5.68h.02Z"/>
    <rect class="st2" x="15.72" y="9.5" width=".73" height="5.38"/>
  </g>
  <g>
    <path class="st0" d="M19.13,43.24l-.35.64c1.84,1.01,2.98,2.95,2.98,5.04,0,3.17-2.58,5.76-5.76,5.76s-5.76-2.58-5.76-5.76c0-2.19,1.21-4.16,3.16-5.14l-.33-.65c-2.2,1.11-3.57,3.33-3.57,5.79,0,3.58,2.91,6.49,6.49,6.49s6.48-2.91,6.48-6.49c0-2.36-1.29-4.54-3.36-5.68h.02Z"/>
    <rect class="st0" x="15.72" y="41.41" width=".73" height="5.38"/>
  </g>
  <g>
    <path class="st2" d="M19.13,75.24l-.35.64c1.84,1.01,2.98,2.95,2.98,5.04,0,3.17-2.58,5.76-5.76,5.76s-5.76-2.58-5.76-5.76c0-2.19,1.21-4.16,3.16-5.14l-.33-.65c-2.2,1.11-3.57,3.33-3.57,5.79,0,3.58,2.91,6.49,6.49,6.49s6.48-2.91,6.48-6.49c0-2.36-1.29-4.54-3.36-5.68h.02Z"/>
    <rect class="st2" x="15.72" y="73.41" width=".73" height="5.38"/>
  </g>
  <g>
    <path class="st1" d="M19.13,107.2l-.35.64c1.84,1.01,2.98,2.95,2.98,5.04,0,3.17-2.58,5.76-5.76,5.76s-5.76-2.58-5.76-5.76c0-2.19,1.21-4.16,3.16-5.14l-.33-.65c-2.2,1.11-3.57,3.33-3.57,5.79,0,3.58,2.91,6.49,6.49,6.49s6.48-2.91,6.48-6.49c0-2.36-1.29-4.54-3.36-5.68h.02Z"/>
    <rect class="st1" x="15.72" y="105.36" width=".73" height="5.38"/>
  </g>
</svg>