<?xml version="1.0" encoding="UTF-8"?>
<svg id="Calque_1" xmlns="http://www.w3.org/2000/svg" version="1.1" viewBox="0 0 32 128">
  <!-- Generator: Adobe Illustrator 30.3.0, SVG Export Plug-In . SVG Version: 2.1.3 Build 182)  -->
  <defs>
    <style>
      .st0 {
        fill: #39b1e5;
      }

      .st0, .st1, .st2 {
        fill-rule: evenodd;
      }

      .st1 {
        fill: #555;
      }

      .st2 {
        fill: #cbcbcb;
      }
    </style>
  </defs>
  <path class="st1" d="M19.39,11.11c2.25,1.21,3.79,3.58,3.79,6.31,0,3.95-3.22,7.15-7.18,7.15s-7.18-3.21-7.18-7.15c0-2.74,1.55-5.13,3.83-6.33.44-.23.61-.78.38-1.22-.23-.44-.79-.61-1.23-.38-2.85,1.5-4.8,4.49-4.8,7.93,0,4.95,4.03,8.97,9,8.97s9-4.02,9-8.97c0-3.42-1.92-6.39-4.75-7.9-.44-.24-.99-.07-1.23.37-.24.44-.07.99.37,1.23h0ZM14.96,7.93v5.66c0,.48.45.87,1.01.87.56,0,1.01-.39,1.01-.87v-5.66c0-.48-.45-.87-1.01-.87s-1.01.39-1.01.87Z"/>
  <path class="st0" d="M19.39,42.61c2.25,1.21,3.79,3.58,3.79,6.31,0,3.95-3.22,7.15-7.18,7.15s-7.18-3.21-7.18-7.15c0-2.74,1.55-5.13,3.83-6.33.44-.23.61-.78.38-1.22-.23-.44-.79-.61-1.23-.38-2.85,1.5-4.8,4.49-4.8,7.93,0,4.95,4.03,8.97,9,8.97s9-4.02,9-8.97c0-3.42-1.92-6.39-4.75-7.9-.44-.24-.99-.07-1.23.37-.24.44-.07.99.37,1.23h0ZM14.96,39.43v5.66c0,.48.45.87,1.01.87.56,0,1.01-.39,1.01-.87v-5.66c0-.48-.45-.87-1.01-.87s-1.01.39-1.01.87Z"/>
  <path class="st1" d="M19.39,74.15c2.25,1.21,3.79,3.58,3.79,6.31,0,3.95-3.22,7.15-7.18,7.15s-7.18-3.21-7.18-7.15c0-2.74,1.55-5.13,3.83-6.33.44-.23.61-.78.38-1.22-.23-.44-.79-.61-1.23-.38-2.85,1.5-4.8,4.49-4.8,7.93,0,4.95,4.03,8.97,9,8.97s9-4.02,9-8.97c0-3.42-1.92-6.39-4.75-7.9-.44-.24-.99-.07-1.23.37-.24.44-.07.99.37,1.23h0ZM14.96,70.97v5.66c0,.48.45.87,1.01.87.56,0,1.01-.39,1.01-.87v-5.66c0-.48-.45-.87-1.01-.87s-1.01.39-1.01.87Z"/>
  <path class="st2" d="M19.39,105.64c2.25,1.21,3.79,3.58,3.79,6.31,0,3.95-3.22,7.15-7.18,7.15s-7.18-3.21-7.18-7.15c0-2.74,1.55-5.13,3.83-6.33.44-.23.61-.78.38-1.22-.23-.44-.79-.61-1.23-.38-2.85,1.5-4.8,4.49-4.8,7.93,0,4.95,4.03,8.97,9,8.97s9-4.02,9-8.97c0-3.42-1.92-6.39-4.75-7.9-.44-.24-.99-.07-1.23.37-.24.44-.07.99.37,1.23h0ZM14.96,102.46v5.66c0,.48.45.87,1.01.87.56,0,1.01-.39,1.01-.87v-5.66c0-.48-.45-.87-1.01-.87s-1.01.39-1.01.87Z"/>
</svg>