<?xml version="1.0" encoding="UTF-8"?>
<svg id="Calque_1" xmlns="http://www.w3.org/2000/svg" version="1.1" viewBox="0 0 64 256">
  <!-- Generator: Adobe Illustrator 30.3.0, SVG Export Plug-In . SVG Version: 2.1.3 Build 182)  -->
  <defs>
    <style>
      .st0 {
        fill: #39b1e5;
      }

      .st1 {
        fill: #cbcbcb;
      }

      .st2 {
        fill: #555;
      }
    </style>
  </defs>
  <g>
    <path class="st2" d="M38.56,21.06l-.74,1.34c3.85,2.12,6.25,6.18,6.25,10.57,0,6.65-5.41,12.06-12.06,12.06s-12.06-5.41-12.06-12.06c0-4.58,2.54-8.71,6.63-10.78l-.69-1.36c-4.61,2.33-7.47,6.98-7.47,12.14,0,7.5,6.1,13.59,13.59,13.59s13.59-6.1,13.59-13.59c0-4.95-2.7-9.52-7.04-11.91Z"/>
    <rect class="st2" x="31.41" y="17.22" width="1.53" height="11.27"/>
  </g>
  <g>
    <path class="st0" d="M38.56,85.58l-.74,1.34c3.85,2.12,6.25,6.18,6.25,10.57,0,6.65-5.41,12.06-12.06,12.06s-12.06-5.41-12.06-12.06c0-4.58,2.54-8.71,6.63-10.78l-.69-1.36c-4.61,2.33-7.47,6.98-7.47,12.14,0,7.5,6.1,13.59,13.59,13.59s13.59-6.1,13.59-13.59c0-4.95-2.7-9.52-7.04-11.91Z"/>
    <rect class="st0" x="31.41" y="81.74" width="1.53" height="11.27"/>
  </g>
  <g>
    <path class="st2" d="M38.56,149.12l-.74,1.34c3.85,2.12,6.25,6.18,6.25,10.57,0,6.65-5.41,12.06-12.06,12.06s-12.06-5.41-12.06-12.06c0-4.58,2.54-8.71,6.63-10.78l-.69-1.36c-4.61,2.33-7.47,6.98-7.47,12.14,0,7.5,6.1,13.59,13.59,13.59s13.59-6.1,13.59-13.59c0-4.95-2.7-9.52-7.04-11.91Z"/>
    <rect class="st2" x="31.41" y="145.28" width="1.53" height="11.27"/>
  </g>
  <g>
    <path class="st1" d="M38.56,213.2l-.74,1.34c3.85,2.12,6.25,6.18,6.25,10.57,0,6.65-5.41,12.06-12.06,12.06s-12.06-5.41-12.06-12.06c0-4.58,2.54-8.71,6.63-10.78l-.69-1.36c-4.61,2.33-7.47,6.98-7.47,12.14,0,7.5,6.1,13.59,13.59,13.59s13.59-6.1,13.59-13.59c0-4.95-2.7-9.52-7.04-11.91h0Z"/>
    <rect class="st1" x="31.41" y="209.36" width="1.53" height="11.27"/>
  </g>
</svg>